<?xml version="1.0" encoding="UTF-8" standalone="no"?>
<!DOCTYPE svg PUBLIC "-//W3C//DTD SVG 1.1//EN"
 "http://www.w3.org/Graphics/SVG/1.1/DTD/svg11.dtd">
<!-- Generated by graphviz version 2.26.3 (20100126.1600)
 -->
<!-- Title: graph1 Pages: 1 -->
<svg width="946pt" height="120pt"
 viewBox="0.00 0.00 946.00 120.00" xmlns="http://www.w3.org/2000/svg" xmlns:xlink="http://www.w3.org/1999/xlink">
<g id="graph1" class="graph" transform="scale(1 1) rotate(0) translate(4 116)">
<title>graph1</title>
<polygon fill="white" stroke="white" points="-4,5 -4,-116 943,-116 943,5 -4,5"/>
<!-- 21305 -->
<g id="node1" class="node"><title>21305</title>
<ellipse fill="none" stroke="black" stroke-dasharray="5,2" cx="442" cy="-93" rx="57.9828" ry="18.3848"/>
<text text-anchor="middle" x="442" y="-89.4" font-family="Times Roman,serif" font-size="14.00">authorise</text>
</g>
<!-- 21304 -->
<g id="node3" class="node"><title>21304</title>
<a xlink:href="21304.svg" xlink:title="store_card_key">
<ellipse fill="none" stroke="black" cx="85" cy="-19" rx="84.8528" ry="18.3848"/>
<text text-anchor="middle" x="85" y="-15.4" font-family="Times Roman,serif" font-size="14.00">store_card_key</text>
</a>
</g>
<!-- 21305&#45;&gt;21304 -->
<g id="edge2" class="edge"><title>21305&#45;&gt;21304</title>
<path fill="none" stroke="black" d="M393.109,-82.8658C332.044,-70.208 227.072,-48.449 156.857,-33.8947"/>
<polygon fill="black" stroke="black" points="157.261,-30.4042 146.759,-31.8015 155.84,-37.2585 157.261,-30.4042"/>
</g>
<!-- 21234 -->
<g id="node5" class="node"><title>21234</title>
<a xlink:href="21234.svg" xlink:title="uuid_generate_v4">
<ellipse fill="none" stroke="black" cx="287" cy="-19" rx="99.201" ry="18.3848"/>
<text text-anchor="middle" x="287" y="-15.4" font-family="Times Roman,serif" font-size="14.00">uuid_generate_v4</text>
</a>
</g>
<!-- 21305&#45;&gt;21234 -->
<g id="edge4" class="edge"><title>21305&#45;&gt;21234</title>
<path fill="none" stroke="black" d="M409.507,-77.4872C387.152,-66.8144 357.151,-52.4914 332.433,-40.6908"/>
<polygon fill="black" stroke="black" points="333.778,-37.4544 323.246,-36.3045 330.762,-43.7714 333.778,-37.4544"/>
</g>
<!-- 21236 -->
<g id="node7" class="node"><title>21236</title>
<a xlink:href="21236.svg" xlink:title="authorise_payment_request_json_rpc">
<ellipse fill="none" stroke="black" cx="597" cy="-19" rx="193.247" ry="18.3848"/>
<text text-anchor="middle" x="597" y="-15.4" font-family="Times Roman,serif" font-size="14.00">authorise_payment_request_json_rpc</text>
</a>
</g>
<!-- 21305&#45;&gt;21236 -->
<g id="edge6" class="edge"><title>21305&#45;&gt;21236</title>
<path fill="none" stroke="black" d="M474.493,-77.4872C496.297,-67.0775 525.375,-53.1952 549.729,-41.5679"/>
<polygon fill="black" stroke="black" points="551.291,-44.7008 558.807,-37.2339 548.275,-38.3838 551.291,-44.7008"/>
</g>
<!-- 2003 -->
<g id="node9" class="node"><title>2003</title>
<a xlink:href="2003.svg" xlink:title="textanycat">
<ellipse fill="none" stroke="black" cx="873" cy="-19" rx="65.0538" ry="18.3848"/>
<text text-anchor="middle" x="873" y="-15.4" font-family="Times Roman,serif" font-size="14.00">textanycat</text>
</a>
</g>
<!-- 21305&#45;&gt;2003 -->
<g id="edge8" class="edge"><title>21305&#45;&gt;2003</title>
<path fill="none" stroke="black" d="M496.427,-86.3107C566.685,-77.2883 692.565,-59.8075 799,-38 804.441,-36.8851 810.082,-35.6266 815.712,-34.3013"/>
<polygon fill="black" stroke="black" points="816.894,-37.6163 825.789,-31.8601 815.246,-30.8131 816.894,-37.6163"/>
</g>
</g>
</svg>
