<?xml version="1.0" encoding="UTF-8" standalone="no"?>
<!DOCTYPE svg PUBLIC "-//W3C//DTD SVG 1.1//EN"
 "http://www.w3.org/Graphics/SVG/1.1/DTD/svg11.dtd">
<!-- Generated by graphviz version 2.26.3 (20100126.1600)
 -->
<!-- Title: graph1 Pages: 1 -->
<svg width="563pt" height="194pt"
 viewBox="0.00 0.00 563.00 194.00" xmlns="http://www.w3.org/2000/svg" xmlns:xlink="http://www.w3.org/1999/xlink">
<g id="graph1" class="graph" transform="scale(1 1) rotate(0) translate(4 190)">
<title>graph1</title>
<polygon fill="white" stroke="white" points="-4,5 -4,-190 560,-190 560,5 -4,5"/>
<!-- 21410 -->
<g id="node1" class="node"><title>21410</title>
<a xlink:href="21410.svg" xlink:title="decrypt_card">
<ellipse fill="none" stroke="black" cx="325" cy="-93" rx="74.2462" ry="18.3848"/>
<text text-anchor="middle" x="325" y="-89.4" font-family="Times Roman,serif" font-size="14.00">decrypt_card</text>
</a>
</g>
<!-- 21313 -->
<g id="node3" class="node"><title>21313</title>
<ellipse fill="none" stroke="black" stroke-dasharray="5,2" cx="244" cy="-19" rx="41.0122" ry="18.3848"/>
<text text-anchor="middle" x="244" y="-15.4" font-family="Times Roman,serif" font-size="14.00">digest</text>
</g>
<!-- 21410&#45;&gt;21313 -->
<g id="edge2" class="edge"><title>21410&#45;&gt;21313</title>
<path fill="none" stroke="black" d="M305.392,-75.0867C294.74,-65.3555 281.434,-53.1987 269.934,-42.6931"/>
<polygon fill="black" stroke="black" points="272.061,-39.8948 262.317,-35.734 267.339,-45.0629 272.061,-39.8948"/>
</g>
<!-- 21406 -->
<g id="node4" class="node"><title>21406</title>
<a xlink:href="21406.svg" xlink:title="encrypt_card">
<ellipse fill="none" stroke="black" stroke-width="2.5" cx="75" cy="-167" rx="74.9533" ry="18.3848"/>
<text text-anchor="middle" x="75" y="-163.4" font-family="Times Roman,serif" font-size="14.00">encrypt_card</text>
</a>
</g>
<!-- 21406&#45;&gt;21313 -->
<g id="edge4" class="edge"><title>21406&#45;&gt;21313</title>
<path fill="none" stroke="black" d="M71.8554,-148.4C69.4902,-127.898 69.0974,-95.0405 86,-74 100.2,-56.3238 155.847,-39.7511 197.104,-29.5105"/>
<polygon fill="black" stroke="black" points="198.094,-32.8719 206.985,-27.1095 196.441,-26.0699 198.094,-32.8719"/>
</g>
<!-- 21407 -->
<g id="node6" class="node"><title>21407</title>
<a xlink:href="21407.svg" xlink:title="encrypt_cvc">
<ellipse fill="none" stroke="black" cx="164" cy="-93" rx="68.7979" ry="18.3848"/>
<text text-anchor="middle" x="164" y="-89.4" font-family="Times Roman,serif" font-size="14.00">encrypt_cvc</text>
</a>
</g>
<!-- 21406&#45;&gt;21407 -->
<g id="edge10" class="edge"><title>21406&#45;&gt;21407</title>
<path fill="none" stroke="black" d="M96.5444,-149.087C108.023,-139.543 122.308,-127.665 134.773,-117.301"/>
<polygon fill="black" stroke="black" points="137.202,-119.833 142.654,-110.748 132.727,-114.45 137.202,-119.833"/>
</g>
<!-- 21407&#45;&gt;21313 -->
<g id="edge6" class="edge"><title>21407&#45;&gt;21313</title>
<path fill="none" stroke="black" d="M183.366,-75.0867C193.886,-65.3555 207.028,-53.1987 218.386,-42.6931"/>
<polygon fill="black" stroke="black" points="220.945,-45.0938 225.909,-35.734 216.192,-39.9551 220.945,-45.0938"/>
</g>
<!-- 21411 -->
<g id="node8" class="node"><title>21411</title>
<a xlink:href="21411.svg" xlink:title="decrypt_cvc">
<ellipse fill="none" stroke="black" cx="486" cy="-93" rx="68.7979" ry="18.3848"/>
<text text-anchor="middle" x="486" y="-89.4" font-family="Times Roman,serif" font-size="14.00">decrypt_cvc</text>
</a>
</g>
<!-- 21411&#45;&gt;21313 -->
<g id="edge8" class="edge"><title>21411&#45;&gt;21313</title>
<path fill="none" stroke="black" d="M440.482,-79.0812C396.659,-65.6808 330.843,-45.5552 287.657,-32.3495"/>
<polygon fill="black" stroke="black" points="288.584,-28.9732 277.998,-29.396 286.537,-35.6672 288.584,-28.9732"/>
</g>
<!-- 21408 -->
<g id="node11" class="node"><title>21408</title>
<a xlink:href="21408.svg" xlink:title="authorise_payment_request">
<ellipse fill="none" stroke="black" stroke-width="2.5" cx="405" cy="-167" rx="147.992" ry="18.3848"/>
<text text-anchor="middle" x="405" y="-163.4" font-family="Times Roman,serif" font-size="14.00">authorise_payment_request</text>
</a>
</g>
<!-- 21408&#45;&gt;21410 -->
<g id="edge14" class="edge"><title>21408&#45;&gt;21410</title>
<path fill="none" stroke="black" d="M384.813,-148.327C374.83,-139.093 362.646,-127.822 351.885,-117.869"/>
<polygon fill="black" stroke="black" points="354.071,-115.123 344.353,-110.902 349.317,-120.261 354.071,-115.123"/>
</g>
<!-- 21408&#45;&gt;21411 -->
<g id="edge12" class="edge"><title>21408&#45;&gt;21411</title>
<path fill="none" stroke="black" d="M425.44,-148.327C435.547,-139.093 447.884,-127.822 458.779,-117.869"/>
<polygon fill="black" stroke="black" points="461.383,-120.23 466.405,-110.902 456.661,-115.062 461.383,-120.23"/>
</g>
</g>
</svg>
