<?xml version="1.0" encoding="UTF-8" standalone="no"?>
<!DOCTYPE svg PUBLIC "-//W3C//DTD SVG 1.1//EN"
 "http://www.w3.org/Graphics/SVG/1.1/DTD/svg11.dtd">
<!-- Generated by graphviz version 2.26.3 (20100126.1600)
 -->
<!-- Title: graph1 Pages: 1 -->
<svg width="312pt" height="194pt"
 viewBox="0.00 0.00 312.00 194.00" xmlns="http://www.w3.org/2000/svg" xmlns:xlink="http://www.w3.org/1999/xlink">
<g id="graph1" class="graph" transform="scale(1 1) rotate(0) translate(4 190)">
<title>graph1</title>
<polygon fill="white" stroke="white" points="-4,5 -4,-190 309,-190 309,5 -4,5"/>
<!-- 21410 -->
<g id="node1" class="node"><title>21410</title>
<a xlink:href="21410.svg" xlink:title="decrypt_card">
<ellipse fill="none" stroke="black" cx="74" cy="-93" rx="74.2462" ry="18.3848"/>
<text text-anchor="middle" x="74" y="-89.4" font-family="Times Roman,serif" font-size="14.00">decrypt_card</text>
</a>
</g>
<!-- 21329 -->
<g id="node3" class="node"><title>21329</title>
<ellipse fill="none" stroke="black" stroke-dasharray="5,2" cx="154" cy="-19" rx="96.1665" ry="18.3848"/>
<text text-anchor="middle" x="154" y="-15.4" font-family="Times Roman,serif" font-size="14.00">pgp_sym_decrypt</text>
</g>
<!-- 21410&#45;&gt;21329 -->
<g id="edge2" class="edge"><title>21410&#45;&gt;21329</title>
<path fill="none" stroke="black" d="M93.3658,-75.0867C103.338,-65.8621 115.667,-54.4579 126.598,-44.3468"/>
<polygon fill="black" stroke="black" points="129.292,-46.6223 134.257,-37.2625 124.539,-41.4836 129.292,-46.6223"/>
</g>
<!-- 21411 -->
<g id="node4" class="node"><title>21411</title>
<a xlink:href="21411.svg" xlink:title="decrypt_cvc">
<ellipse fill="none" stroke="black" cx="235" cy="-93" rx="68.7979" ry="18.3848"/>
<text text-anchor="middle" x="235" y="-89.4" font-family="Times Roman,serif" font-size="14.00">decrypt_cvc</text>
</a>
</g>
<!-- 21411&#45;&gt;21329 -->
<g id="edge4" class="edge"><title>21411&#45;&gt;21329</title>
<path fill="none" stroke="black" d="M215.392,-75.0867C205.197,-65.7725 192.569,-54.2362 181.422,-44.0526"/>
<polygon fill="black" stroke="black" points="183.734,-41.4233 173.99,-37.2625 179.012,-46.5914 183.734,-41.4233"/>
</g>
<!-- 21408 -->
<g id="node6" class="node"><title>21408</title>
<a xlink:href="21408.svg" xlink:title="authorise_payment_request">
<ellipse fill="none" stroke="black" stroke-width="2.5" cx="154" cy="-167" rx="147.992" ry="18.3848"/>
<text text-anchor="middle" x="154" y="-163.4" font-family="Times Roman,serif" font-size="14.00">authorise_payment_request</text>
</a>
</g>
<!-- 21408&#45;&gt;21410 -->
<g id="edge6" class="edge"><title>21408&#45;&gt;21410</title>
<path fill="none" stroke="black" d="M133.813,-148.327C123.83,-139.093 111.646,-127.822 100.885,-117.869"/>
<polygon fill="black" stroke="black" points="103.071,-115.123 93.353,-110.902 98.3174,-120.261 103.071,-115.123"/>
</g>
<!-- 21408&#45;&gt;21411 -->
<g id="edge8" class="edge"><title>21408&#45;&gt;21411</title>
<path fill="none" stroke="black" d="M174.44,-148.327C184.547,-139.093 196.884,-127.822 207.779,-117.869"/>
<polygon fill="black" stroke="black" points="210.383,-120.23 215.405,-110.902 205.661,-115.062 210.383,-120.23"/>
</g>
</g>
</svg>
