<?xml version="1.0" encoding="UTF-8" standalone="no"?>
<!DOCTYPE svg PUBLIC "-//W3C//DTD SVG 1.1//EN"
 "http://www.w3.org/Graphics/SVG/1.1/DTD/svg11.dtd">
<!-- Generated by graphviz version 2.26.3 (20100126.1600)
 -->
<!-- Title: graph1 Pages: 1 -->
<svg width="230pt" height="194pt"
 viewBox="0.00 0.00 230.00 194.00" xmlns="http://www.w3.org/2000/svg" xmlns:xlink="http://www.w3.org/1999/xlink">
<g id="graph1" class="graph" transform="scale(1 1) rotate(0) translate(4 190)">
<title>graph1</title>
<polygon fill="white" stroke="white" points="-4,5 -4,-190 227,-190 227,5 -4,5"/>
<!-- 21406 -->
<g id="node1" class="node"><title>21406</title>
<a xlink:href="21406.svg" xlink:title="encrypt_card">
<ellipse fill="none" stroke="black" stroke-width="2.5" cx="104" cy="-167" rx="74.9533" ry="18.3848"/>
<text text-anchor="middle" x="104" y="-163.4" font-family="Times Roman,serif" font-size="14.00">encrypt_card</text>
</a>
</g>
<!-- 21324 -->
<g id="node3" class="node"><title>21324</title>
<ellipse fill="none" stroke="black" stroke-dasharray="5,2" cx="104" cy="-19" rx="103.945" ry="18.3848"/>
<text text-anchor="middle" x="104" y="-15.4" font-family="Times Roman,serif" font-size="14.00">gen_random_bytes</text>
</g>
<!-- 21406&#45;&gt;21324 -->
<g id="edge2" class="edge"><title>21406&#45;&gt;21324</title>
<path fill="none" stroke="black" d="M91.3854,-148.575C85.1202,-138.303 78.2157,-124.993 75,-112 70.9426,-95.6057 70.9426,-90.3943 75,-74 77.3615,-64.458 81.7124,-54.7452 86.3386,-46.1904"/>
<polygon fill="black" stroke="black" points="89.4288,-47.8377 91.3854,-37.425 83.3625,-44.3449 89.4288,-47.8377"/>
</g>
<!-- 21407 -->
<g id="node4" class="node"><title>21407</title>
<a xlink:href="21407.svg" xlink:title="encrypt_cvc">
<ellipse fill="none" stroke="black" cx="153" cy="-93" rx="68.7979" ry="18.3848"/>
<text text-anchor="middle" x="153" y="-89.4" font-family="Times Roman,serif" font-size="14.00">encrypt_cvc</text>
</a>
</g>
<!-- 21406&#45;&gt;21407 -->
<g id="edge6" class="edge"><title>21406&#45;&gt;21407</title>
<path fill="none" stroke="black" d="M116.112,-148.708C121.884,-139.991 128.9,-129.395 135.258,-119.794"/>
<polygon fill="black" stroke="black" points="138.254,-121.608 140.857,-111.338 132.418,-117.744 138.254,-121.608"/>
</g>
<!-- 21407&#45;&gt;21324 -->
<g id="edge4" class="edge"><title>21407&#45;&gt;21324</title>
<path fill="none" stroke="black" d="M140.888,-74.7079C135.159,-66.0569 128.205,-55.5544 121.885,-46.0105"/>
<polygon fill="black" stroke="black" points="124.753,-44.0012 116.313,-37.5957 118.916,-47.8659 124.753,-44.0012"/>
</g>
</g>
</svg>
