<?xml version="1.0" encoding="UTF-8" standalone="no"?>
<!DOCTYPE svg PUBLIC "-//W3C//DTD SVG 1.1//EN"
 "http://www.w3.org/Graphics/SVG/1.1/DTD/svg11.dtd">
<!-- Generated by graphviz version 2.26.3 (20100126.1600)
 -->
<!-- Title: graph1 Pages: 1 -->
<svg width="223pt" height="194pt"
 viewBox="0.00 0.00 223.00 194.00" xmlns="http://www.w3.org/2000/svg" xmlns:xlink="http://www.w3.org/1999/xlink">
<g id="graph1" class="graph" transform="scale(1 1) rotate(0) translate(4 190)">
<title>graph1</title>
<polygon fill="white" stroke="white" points="-4,5 -4,-190 220,-190 220,5 -4,5"/>
<!-- 21406 -->
<g id="node1" class="node"><title>21406</title>
<a xlink:href="21406.svg" xlink:title="encrypt_card">
<ellipse fill="none" stroke="black" stroke-width="2.5" cx="97" cy="-167" rx="74.9533" ry="18.3848"/>
<text text-anchor="middle" x="97" y="-163.4" font-family="Times Roman,serif" font-size="14.00">encrypt_card</text>
</a>
</g>
<!-- 21327 -->
<g id="node3" class="node"><title>21327</title>
<ellipse fill="none" stroke="black" stroke-dasharray="5,2" cx="97" cy="-19" rx="96.8736" ry="18.3848"/>
<text text-anchor="middle" x="97" y="-15.4" font-family="Times Roman,serif" font-size="14.00">pgp_sym_encrypt</text>
</g>
<!-- 21406&#45;&gt;21327 -->
<g id="edge2" class="edge"><title>21406&#45;&gt;21327</title>
<path fill="none" stroke="black" d="M84.3854,-148.575C78.1202,-138.303 71.2157,-124.993 68,-112 63.9426,-95.6057 63.9426,-90.3943 68,-74 70.3615,-64.458 74.7124,-54.7452 79.3386,-46.1904"/>
<polygon fill="black" stroke="black" points="82.4288,-47.8377 84.3854,-37.425 76.3625,-44.3449 82.4288,-47.8377"/>
</g>
<!-- 21407 -->
<g id="node4" class="node"><title>21407</title>
<a xlink:href="21407.svg" xlink:title="encrypt_cvc">
<ellipse fill="none" stroke="black" cx="146" cy="-93" rx="68.7979" ry="18.3848"/>
<text text-anchor="middle" x="146" y="-89.4" font-family="Times Roman,serif" font-size="14.00">encrypt_cvc</text>
</a>
</g>
<!-- 21406&#45;&gt;21407 -->
<g id="edge6" class="edge"><title>21406&#45;&gt;21407</title>
<path fill="none" stroke="black" d="M109.112,-148.708C114.884,-139.991 121.9,-129.395 128.258,-119.794"/>
<polygon fill="black" stroke="black" points="131.254,-121.608 133.857,-111.338 125.418,-117.744 131.254,-121.608"/>
</g>
<!-- 21407&#45;&gt;21327 -->
<g id="edge4" class="edge"><title>21407&#45;&gt;21327</title>
<path fill="none" stroke="black" d="M133.888,-74.7079C128.159,-66.0569 121.205,-55.5544 114.885,-46.0105"/>
<polygon fill="black" stroke="black" points="117.753,-44.0012 109.313,-37.5957 111.916,-47.8659 117.753,-44.0012"/>
</g>
</g>
</svg>
