<?xml version="1.0" encoding="UTF-8" standalone="no"?>
<!DOCTYPE svg PUBLIC "-//W3C//DTD SVG 1.1//EN"
 "http://www.w3.org/Graphics/SVG/1.1/DTD/svg11.dtd">
<!-- Generated by graphviz version 2.26.3 (20100126.1600)
 -->
<!-- Title: graph1 Pages: 1 -->
<svg width="304pt" height="194pt"
 viewBox="0.00 0.00 304.00 194.00" xmlns="http://www.w3.org/2000/svg" xmlns:xlink="http://www.w3.org/1999/xlink">
<g id="graph1" class="graph" transform="scale(1 1) rotate(0) translate(4 190)">
<title>graph1</title>
<polygon fill="white" stroke="white" points="-4,5 -4,-190 301,-190 301,5 -4,5"/>
<!-- 21410 -->
<g id="node1" class="node"><title>21410</title>
<a xlink:href="21410.svg" xlink:title="decrypt_card">
<ellipse fill="none" stroke="black" cx="148" cy="-93" rx="74.2462" ry="18.3848"/>
<text text-anchor="middle" x="148" y="-89.4" font-family="Times Roman,serif" font-size="14.00">decrypt_card</text>
</a>
</g>
<!-- 21358 -->
<g id="node3" class="node"><title>21358</title>
<ellipse fill="none" stroke="black" stroke-dasharray="5,2" cx="148" cy="-19" rx="84.8528" ry="18.3848"/>
<text text-anchor="middle" x="148" y="-15.4" font-family="Times Roman,serif" font-size="14.00">card_from_json</text>
</g>
<!-- 21410&#45;&gt;21358 -->
<g id="edge2" class="edge"><title>21410&#45;&gt;21358</title>
<path fill="none" stroke="black" d="M148,-74.3267C148,-66.2639 148,-56.6477 148,-47.7115"/>
<polygon fill="black" stroke="black" points="151.5,-47.6673 148,-37.6674 144.5,-47.6674 151.5,-47.6673"/>
</g>
<!-- 21408 -->
<g id="node4" class="node"><title>21408</title>
<a xlink:href="21408.svg" xlink:title="authorise_payment_request">
<ellipse fill="none" stroke="black" stroke-width="2.5" cx="148" cy="-167" rx="147.992" ry="18.3848"/>
<text text-anchor="middle" x="148" y="-163.4" font-family="Times Roman,serif" font-size="14.00">authorise_payment_request</text>
</a>
</g>
<!-- 21408&#45;&gt;21410 -->
<g id="edge4" class="edge"><title>21408&#45;&gt;21410</title>
<path fill="none" stroke="black" d="M148,-148.327C148,-140.264 148,-130.648 148,-121.711"/>
<polygon fill="black" stroke="black" points="151.5,-121.667 148,-111.667 144.5,-121.667 151.5,-121.667"/>
</g>
</g>
</svg>
