<?xml version="1.0" encoding="UTF-8" standalone="no"?>
<!DOCTYPE svg PUBLIC "-//W3C//DTD SVG 1.1//EN"
 "http://www.w3.org/Graphics/SVG/1.1/DTD/svg11.dtd">
<!-- Generated by graphviz version 2.26.3 (20100126.1600)
 -->
<!-- Title: graph1 Pages: 1 -->
<svg width="654pt" height="120pt"
 viewBox="0.00 0.00 654.00 120.00" xmlns="http://www.w3.org/2000/svg" xmlns:xlink="http://www.w3.org/1999/xlink">
<g id="graph1" class="graph" transform="scale(1 1) rotate(0) translate(4 116)">
<title>graph1</title>
<polygon fill="white" stroke="white" points="-4,5 -4,-116 651,-116 651,5 -4,5"/>
<!-- 21409 -->
<g id="node1" class="node"><title>21409</title>
<a xlink:href="21409.svg" xlink:title="authorise_payment_request_3d">
<ellipse fill="none" stroke="black" stroke-width="2.5" cx="166" cy="-93" rx="166.17" ry="18.3848"/>
<text text-anchor="middle" x="166" y="-89.4" font-family="Times Roman,serif" font-size="14.00">authorise_payment_request_3d</text>
</a>
</g>
<!-- 21359 -->
<g id="node3" class="node"><title>21359</title>
<ellipse fill="none" stroke="black" stroke-dasharray="5,2" cx="332" cy="-19" rx="80.8184" ry="18.3848"/>
<text text-anchor="middle" x="332" y="-15.4" font-family="Times Roman,serif" font-size="14.00">http_post_xml</text>
</g>
<!-- 21409&#45;&gt;21359 -->
<g id="edge2" class="edge"><title>21409&#45;&gt;21359</title>
<path fill="none" stroke="black" d="M206.608,-74.8976C230.524,-64.2361 260.86,-50.7131 285.702,-39.6388"/>
<polygon fill="black" stroke="black" points="287.221,-42.7938 294.93,-35.5254 284.371,-36.4003 287.221,-42.7938"/>
</g>
<!-- 21408 -->
<g id="node4" class="node"><title>21408</title>
<a xlink:href="21408.svg" xlink:title="authorise_payment_request">
<ellipse fill="none" stroke="black" stroke-width="2.5" cx="498" cy="-93" rx="147.992" ry="18.3848"/>
<text text-anchor="middle" x="498" y="-89.4" font-family="Times Roman,serif" font-size="14.00">authorise_payment_request</text>
</a>
</g>
<!-- 21408&#45;&gt;21359 -->
<g id="edge4" class="edge"><title>21408&#45;&gt;21359</title>
<path fill="none" stroke="black" d="M457.816,-75.0867C433.822,-64.3907 403.255,-50.7644 378.258,-39.6212"/>
<polygon fill="black" stroke="black" points="379.535,-36.3582 368.976,-35.4833 376.685,-42.7517 379.535,-36.3582"/>
</g>
</g>
</svg>
