<?xml version="1.0" encoding="UTF-8" standalone="no"?>
<!DOCTYPE svg PUBLIC "-//W3C//DTD SVG 1.1//EN"
 "http://www.w3.org/Graphics/SVG/1.1/DTD/svg11.dtd">
<!-- Generated by graphviz version 2.26.3 (20100126.1600)
 -->
<!-- Title: graph1 Pages: 1 -->
<svg width="854pt" height="194pt"
 viewBox="0.00 0.00 854.00 194.00" xmlns="http://www.w3.org/2000/svg" xmlns:xlink="http://www.w3.org/1999/xlink">
<g id="graph1" class="graph" transform="scale(1 1) rotate(0) translate(4 190)">
<title>graph1</title>
<polygon fill="white" stroke="white" points="-4,5 -4,-190 851,-190 851,5 -4,5"/>
<!-- 21406 -->
<g id="node1" class="node"><title>21406</title>
<ellipse fill="none" stroke="black" stroke-dasharray="5,2" cx="493" cy="-167" rx="74.9533" ry="18.3848"/>
<text text-anchor="middle" x="493" y="-163.4" font-family="Times Roman,serif" font-size="14.00">encrypt_card</text>
</g>
<!-- 21319 -->
<g id="node3" class="node"><title>21319</title>
<a xlink:href="21319.svg" xlink:title="gen_salt">
<ellipse fill="none" stroke="black" cx="52" cy="-93" rx="51.8276" ry="18.3848"/>
<text text-anchor="middle" x="52" y="-89.4" font-family="Times Roman,serif" font-size="14.00">gen_salt</text>
</a>
</g>
<!-- 21406&#45;&gt;21319 -->
<g id="edge2" class="edge"><title>21406&#45;&gt;21319</title>
<path fill="none" stroke="black" d="M423.053,-160.232C346.353,-152.034 219.944,-136.234 113,-112 108.622,-111.008 104.104,-109.855 99.5994,-108.616"/>
<polygon fill="black" stroke="black" points="100.397,-105.204 89.8193,-105.798 98.4589,-111.93 100.397,-105.204"/>
</g>
<!-- 21355 -->
<g id="node5" class="node"><title>21355</title>
<a xlink:href="21355.svg" xlink:title="uuid_generate_v4">
<ellipse fill="none" stroke="black" cx="221" cy="-93" rx="99.201" ry="18.3848"/>
<text text-anchor="middle" x="221" y="-89.4" font-family="Times Roman,serif" font-size="14.00">uuid_generate_v4</text>
</a>
</g>
<!-- 21406&#45;&gt;21355 -->
<g id="edge4" class="edge"><title>21406&#45;&gt;21355</title>
<path fill="none" stroke="black" d="M442.476,-153.255C398.638,-141.328 334.874,-123.98 287.009,-110.958"/>
<polygon fill="black" stroke="black" points="287.923,-107.58 277.355,-108.332 286.085,-114.334 287.923,-107.58"/>
</g>
<!-- 21327 -->
<g id="node7" class="node"><title>21327</title>
<a xlink:href="21327.svg" xlink:title="pgp_sym_encrypt">
<ellipse fill="none" stroke="black" cx="318" cy="-19" rx="96.8736" ry="18.3848"/>
<text text-anchor="middle" x="318" y="-15.4" font-family="Times Roman,serif" font-size="14.00">pgp_sym_encrypt</text>
</a>
</g>
<!-- 21406&#45;&gt;21327 -->
<g id="edge6" class="edge"><title>21406&#45;&gt;21327</title>
<path fill="none" stroke="black" d="M441.866,-153.433C416.979,-144.8 387.982,-131.497 367,-112 348.015,-94.3587 335.015,-67.6721 327.201,-47.4038"/>
<polygon fill="black" stroke="black" points="330.397,-45.9499 323.682,-37.755 323.821,-48.3489 330.397,-45.9499"/>
</g>
<!-- 21313 -->
<g id="node9" class="node"><title>21313</title>
<a xlink:href="21313.svg" xlink:title="digest">
<ellipse fill="none" stroke="black" cx="474" cy="-19" rx="41.0122" ry="18.3848"/>
<text text-anchor="middle" x="474" y="-15.4" font-family="Times Roman,serif" font-size="14.00">digest</text>
</a>
</g>
<!-- 21406&#45;&gt;21313 -->
<g id="edge8" class="edge"><title>21406&#45;&gt;21313</title>
<path fill="none" stroke="black" d="M506.344,-148.629C518.349,-129.728 532.721,-99.5253 523,-74 518.484,-62.1423 510.108,-51.2143 501.543,-42.2766"/>
<polygon fill="black" stroke="black" points="503.976,-39.7602 494.384,-35.2603 499.076,-44.7596 503.976,-39.7602"/>
</g>
<!-- 21407 -->
<g id="node11" class="node"><title>21407</title>
<a xlink:href="21407.svg" xlink:title="encrypt_cvc">
<ellipse fill="none" stroke="black" cx="445" cy="-93" rx="68.7979" ry="18.3848"/>
<text text-anchor="middle" x="445" y="-89.4" font-family="Times Roman,serif" font-size="14.00">encrypt_cvc</text>
</a>
</g>
<!-- 21406&#45;&gt;21407 -->
<g id="edge10" class="edge"><title>21406&#45;&gt;21407</title>
<path fill="none" stroke="black" d="M481.135,-148.708C475.481,-139.991 468.608,-129.395 462.38,-119.794"/>
<polygon fill="black" stroke="black" points="465.273,-117.823 456.895,-111.338 459.401,-121.632 465.273,-117.823"/>
</g>
<!-- 21357 -->
<g id="node13" class="node"><title>21357</title>
<a xlink:href="21357.svg" xlink:title="card_to_json">
<ellipse fill="none" stroke="black" cx="681" cy="-93" rx="72.832" ry="18.3848"/>
<text text-anchor="middle" x="681" y="-89.4" font-family="Times Roman,serif" font-size="14.00">card_to_json</text>
</a>
</g>
<!-- 21406&#45;&gt;21357 -->
<g id="edge12" class="edge"><title>21406&#45;&gt;21357</title>
<path fill="none" stroke="black" d="M532.87,-151.307C561.659,-139.975 600.723,-124.599 631.507,-112.481"/>
<polygon fill="black" stroke="black" points="633.164,-115.59 641.188,-108.671 630.6,-109.077 633.164,-115.59"/>
</g>
<!-- 21324 -->
<g id="node15" class="node"><title>21324</title>
<a xlink:href="21324.svg" xlink:title="gen_random_bytes">
<ellipse fill="none" stroke="black" cx="637" cy="-19" rx="103.945" ry="18.3848"/>
<text text-anchor="middle" x="637" y="-15.4" font-family="Times Roman,serif" font-size="14.00">gen_random_bytes</text>
</a>
</g>
<!-- 21406&#45;&gt;21324 -->
<g id="edge14" class="edge"><title>21406&#45;&gt;21324</title>
<path fill="none" stroke="black" d="M510.657,-148.852C536.028,-122.777 582.92,-74.5826 611.889,-44.8081"/>
<polygon fill="black" stroke="black" points="614.733,-46.9042 619.198,-37.2961 609.716,-42.0227 614.733,-46.9042"/>
</g>
<!-- 21317 -->
<g id="node17" class="node"><title>21317</title>
<a xlink:href="21317.svg" xlink:title="crypt">
<ellipse fill="none" stroke="black" cx="809" cy="-93" rx="36.7696" ry="18.3848"/>
<text text-anchor="middle" x="809" y="-89.4" font-family="Times Roman,serif" font-size="14.00">crypt</text>
</a>
</g>
<!-- 21406&#45;&gt;21317 -->
<g id="edge16" class="edge"><title>21406&#45;&gt;21317</title>
<path fill="none" stroke="black" d="M557.413,-157.433C612.66,-148.388 694.028,-133.058 763,-112 765.789,-111.148 768.642,-110.191 771.494,-109.171"/>
<polygon fill="black" stroke="black" points="772.988,-112.347 781.091,-105.521 770.5,-105.805 772.988,-112.347"/>
</g>
<!-- 21407&#45;&gt;21327 -->
<g id="edge18" class="edge"><title>21407&#45;&gt;21327</title>
<path fill="none" stroke="black" d="M415.864,-76.0229C398.415,-65.856 376.013,-52.8027 357.046,-41.7511"/>
<polygon fill="black" stroke="black" points="358.729,-38.6809 348.326,-36.6705 355.205,-44.7291 358.729,-38.6809"/>
</g>
<!-- 21407&#45;&gt;21313 -->
<g id="edge20" class="edge"><title>21407&#45;&gt;21313</title>
<path fill="none" stroke="black" d="M452.318,-74.3267C455.571,-66.0257 459.469,-56.0782 463.058,-46.9214"/>
<polygon fill="black" stroke="black" points="466.395,-47.9987 466.785,-37.411 459.877,-45.4445 466.395,-47.9987"/>
</g>
<!-- 21407&#45;&gt;21324 -->
<g id="edge22" class="edge"><title>21407&#45;&gt;21324</title>
<path fill="none" stroke="black" d="M484.783,-77.6672C513.451,-66.618 552.446,-51.5885 583.79,-39.508"/>
<polygon fill="black" stroke="black" points="585.18,-42.7234 593.252,-35.8612 582.662,-36.1917 585.18,-42.7234"/>
</g>
</g>
</svg>
