<?xml version="1.0" encoding="UTF-8" standalone="no"?>
<!DOCTYPE svg PUBLIC "-//W3C//DTD SVG 1.1//EN"
 "http://www.w3.org/Graphics/SVG/1.1/DTD/svg11.dtd">
<!-- Generated by graphviz version 2.26.3 (20100126.1600)
 -->
<!-- Title: graph1 Pages: 1 -->
<svg width="1244pt" height="194pt"
 viewBox="0.00 0.00 1244.00 194.00" xmlns="http://www.w3.org/2000/svg" xmlns:xlink="http://www.w3.org/1999/xlink">
<g id="graph1" class="graph" transform="scale(1 1) rotate(0) translate(4 190)">
<title>graph1</title>
<polygon fill="white" stroke="white" points="-4,5 -4,-190 1241,-190 1241,5 -4,5"/>
<!-- 21408 -->
<g id="node1" class="node"><title>21408</title>
<ellipse fill="none" stroke="black" stroke-dasharray="5,2" cx="797" cy="-167" rx="147.992" ry="18.3848"/>
<text text-anchor="middle" x="797" y="-163.4" font-family="Times Roman,serif" font-size="14.00">authorise_payment_request</text>
</g>
<!-- 21414 -->
<g id="node3" class="node"><title>21414</title>
<a xlink:href="21414.svg" xlink:title="parse_adyen_authorise_response">
<ellipse fill="none" stroke="black" stroke-width="2.5" cx="173" cy="-93" rx="173.241" ry="18.3848"/>
<text text-anchor="middle" x="173" y="-89.4" font-family="Times Roman,serif" font-size="14.00">parse_adyen_authorise_response</text>
</a>
</g>
<!-- 21408&#45;&gt;21414 -->
<g id="edge2" class="edge"><title>21408&#45;&gt;21414</title>
<path fill="none" stroke="black" d="M689.375,-154.237C580.994,-141.384 413.863,-121.564 299.277,-107.975"/>
<polygon fill="black" stroke="black" points="299.392,-104.464 289.049,-106.762 298.567,-111.416 299.392,-104.464"/>
</g>
<!-- 21412 -->
<g id="node5" class="node"><title>21412</title>
<a xlink:href="21412.svg" xlink:title="format_adyen_authorise_request">
<ellipse fill="none" stroke="black" stroke-width="2.5" cx="537" cy="-93" rx="173.241" ry="18.3848"/>
<text text-anchor="middle" x="537" y="-89.4" font-family="Times Roman,serif" font-size="14.00">format_adyen_authorise_request</text>
</a>
</g>
<!-- 21408&#45;&gt;21412 -->
<g id="edge4" class="edge"><title>21408&#45;&gt;21412</title>
<path fill="none" stroke="black" d="M737.351,-150.023C698.847,-139.064 648.56,-124.752 607.999,-113.207"/>
<polygon fill="black" stroke="black" points="608.753,-109.783 598.177,-110.412 606.837,-116.516 608.753,-109.783"/>
</g>
<!-- 21410 -->
<g id="node7" class="node"><title>21410</title>
<a xlink:href="21410.svg" xlink:title="decrypt_card">
<ellipse fill="none" stroke="black" cx="958" cy="-93" rx="74.2462" ry="18.3848"/>
<text text-anchor="middle" x="958" y="-89.4" font-family="Times Roman,serif" font-size="14.00">decrypt_card</text>
</a>
</g>
<!-- 21408&#45;&gt;21410 -->
<g id="edge6" class="edge"><title>21408&#45;&gt;21410</title>
<path fill="none" stroke="black" d="M835.974,-149.087C859.224,-138.4 888.839,-124.788 913.071,-113.65"/>
<polygon fill="black" stroke="black" points="914.785,-116.715 922.409,-109.358 911.861,-110.355 914.785,-116.715"/>
</g>
<!-- 21359 -->
<g id="node9" class="node"><title>21359</title>
<a xlink:href="21359.svg" xlink:title="http_post_xml">
<ellipse fill="none" stroke="black" stroke-width="2.5" cx="1131" cy="-93" rx="80.8184" ry="18.3848"/>
<text text-anchor="middle" x="1131" y="-89.4" font-family="Times Roman,serif" font-size="14.00">http_post_xml</text>
</a>
</g>
<!-- 21408&#45;&gt;21359 -->
<g id="edge8" class="edge"><title>21408&#45;&gt;21359</title>
<path fill="none" stroke="black" d="M869.885,-150.852C927.285,-138.134 1006.71,-120.537 1062.85,-108.099"/>
<polygon fill="black" stroke="black" points="1063.7,-111.497 1072.7,-105.916 1062.18,-104.662 1063.7,-111.497"/>
</g>
<!-- 21411 -->
<g id="node11" class="node"><title>21411</title>
<a xlink:href="21411.svg" xlink:title="decrypt_cvc">
<ellipse fill="none" stroke="black" cx="797" cy="-93" rx="68.7979" ry="18.3848"/>
<text text-anchor="middle" x="797" y="-89.4" font-family="Times Roman,serif" font-size="14.00">decrypt_cvc</text>
</a>
</g>
<!-- 21408&#45;&gt;21411 -->
<g id="edge10" class="edge"><title>21408&#45;&gt;21411</title>
<path fill="none" stroke="black" d="M797,-148.327C797,-140.264 797,-130.648 797,-121.711"/>
<polygon fill="black" stroke="black" points="800.5,-121.667 797,-111.667 793.5,-121.667 800.5,-121.667"/>
</g>
<!-- 21329 -->
<g id="node13" class="node"><title>21329</title>
<a xlink:href="21329.svg" xlink:title="pgp_sym_decrypt">
<ellipse fill="none" stroke="black" cx="952" cy="-19" rx="96.1665" ry="18.3848"/>
<text text-anchor="middle" x="952" y="-15.4" font-family="Times Roman,serif" font-size="14.00">pgp_sym_decrypt</text>
</a>
</g>
<!-- 21410&#45;&gt;21329 -->
<g id="edge16" class="edge"><title>21410&#45;&gt;21329</title>
<path fill="none" stroke="black" d="M956.486,-74.3267C955.832,-66.2639 955.053,-56.6477 954.328,-47.7115"/>
<polygon fill="black" stroke="black" points="957.81,-47.3518 953.514,-37.6674 950.833,-47.9175 957.81,-47.3518"/>
</g>
<!-- 21313 -->
<g id="node15" class="node"><title>21313</title>
<a xlink:href="21313.svg" xlink:title="digest">
<ellipse fill="none" stroke="black" cx="797" cy="-19" rx="41.0122" ry="18.3848"/>
<text text-anchor="middle" x="797" y="-15.4" font-family="Times Roman,serif" font-size="14.00">digest</text>
</a>
</g>
<!-- 21410&#45;&gt;21313 -->
<g id="edge20" class="edge"><title>21410&#45;&gt;21313</title>
<path fill="none" stroke="black" d="M922.269,-76.577C896.444,-64.7071 861.606,-48.6945 835.224,-36.569"/>
<polygon fill="black" stroke="black" points="836.468,-33.2886 825.92,-32.2925 833.545,-39.6489 836.468,-33.2886"/>
</g>
<!-- 21358 -->
<g id="node18" class="node"><title>21358</title>
<a xlink:href="21358.svg" xlink:title="card_from_json">
<ellipse fill="none" stroke="black" cx="1151" cy="-19" rx="84.8528" ry="18.3848"/>
<text text-anchor="middle" x="1151" y="-15.4" font-family="Times Roman,serif" font-size="14.00">card_from_json</text>
</a>
</g>
<!-- 21410&#45;&gt;21358 -->
<g id="edge18" class="edge"><title>21410&#45;&gt;21358</title>
<path fill="none" stroke="black" d="M998.459,-77.4872C1027.81,-66.2336 1067.74,-50.9218 1099.39,-38.7878"/>
<polygon fill="black" stroke="black" points="1100.84,-41.9803 1108.93,-35.1321 1098.34,-35.4442 1100.84,-41.9803"/>
</g>
<!-- 21411&#45;&gt;21329 -->
<g id="edge12" class="edge"><title>21411&#45;&gt;21329</title>
<path fill="none" stroke="black" d="M831.015,-76.7604C853.201,-66.1686 882.415,-52.221 906.578,-40.6852"/>
<polygon fill="black" stroke="black" points="908.389,-43.6992 915.905,-36.2323 905.373,-37.3822 908.389,-43.6992"/>
</g>
<!-- 21411&#45;&gt;21313 -->
<g id="edge14" class="edge"><title>21411&#45;&gt;21313</title>
<path fill="none" stroke="black" d="M797,-74.3267C797,-66.2639 797,-56.6477 797,-47.7115"/>
<polygon fill="black" stroke="black" points="800.5,-47.6673 797,-37.6674 793.5,-47.6674 800.5,-47.6673"/>
</g>
</g>
</svg>
