<?xml version="1.0" encoding="UTF-8" standalone="no"?>
<!DOCTYPE svg PUBLIC "-//W3C//DTD SVG 1.1//EN"
 "http://www.w3.org/Graphics/SVG/1.1/DTD/svg11.dtd">
<!-- Generated by graphviz version 2.26.3 (20100126.1600)
 -->
<!-- Title: graph1 Pages: 1 -->
<svg width="528pt" height="194pt"
 viewBox="0.00 0.00 528.00 194.00" xmlns="http://www.w3.org/2000/svg" xmlns:xlink="http://www.w3.org/1999/xlink">
<g id="graph1" class="graph" transform="scale(1 1) rotate(0) translate(4 190)">
<title>graph1</title>
<polygon fill="white" stroke="white" points="-4,5 -4,-190 525,-190 525,5 -4,5"/>
<!-- 21406 -->
<g id="node1" class="node"><title>21406</title>
<a xlink:href="21406.svg" xlink:title="encrypt_card">
<ellipse fill="none" stroke="black" stroke-width="2.5" cx="253" cy="-167" rx="74.9533" ry="18.3848"/>
<text text-anchor="middle" x="253" y="-163.4" font-family="Times Roman,serif" font-size="14.00">encrypt_card</text>
</a>
</g>
<!-- 21407 -->
<g id="node3" class="node"><title>21407</title>
<ellipse fill="none" stroke="black" stroke-dasharray="5,2" cx="253" cy="-93" rx="68.7979" ry="18.3848"/>
<text text-anchor="middle" x="253" y="-89.4" font-family="Times Roman,serif" font-size="14.00">encrypt_cvc</text>
</g>
<!-- 21406&#45;&gt;21407 -->
<g id="edge2" class="edge"><title>21406&#45;&gt;21407</title>
<path fill="none" stroke="black" d="M253,-148.327C253,-140.264 253,-130.648 253,-121.711"/>
<polygon fill="black" stroke="black" points="256.5,-121.667 253,-111.667 249.5,-121.667 256.5,-121.667"/>
</g>
<!-- 21327 -->
<g id="node5" class="node"><title>21327</title>
<a xlink:href="21327.svg" xlink:title="pgp_sym_encrypt">
<ellipse fill="none" stroke="black" cx="97" cy="-19" rx="96.8736" ry="18.3848"/>
<text text-anchor="middle" x="97" y="-15.4" font-family="Times Roman,serif" font-size="14.00">pgp_sym_encrypt</text>
</a>
</g>
<!-- 21407&#45;&gt;21327 -->
<g id="edge4" class="edge"><title>21407&#45;&gt;21327</title>
<path fill="none" stroke="black" d="M218.765,-76.7604C196.338,-66.1218 166.773,-52.0975 142.392,-40.5322"/>
<polygon fill="black" stroke="black" points="143.863,-37.3559 133.327,-36.2323 140.862,-43.6804 143.863,-37.3559"/>
</g>
<!-- 21313 -->
<g id="node7" class="node"><title>21313</title>
<a xlink:href="21313.svg" xlink:title="digest">
<ellipse fill="none" stroke="black" cx="253" cy="-19" rx="41.0122" ry="18.3848"/>
<text text-anchor="middle" x="253" y="-15.4" font-family="Times Roman,serif" font-size="14.00">digest</text>
</a>
</g>
<!-- 21407&#45;&gt;21313 -->
<g id="edge6" class="edge"><title>21407&#45;&gt;21313</title>
<path fill="none" stroke="black" d="M253,-74.3267C253,-66.2639 253,-56.6477 253,-47.7115"/>
<polygon fill="black" stroke="black" points="256.5,-47.6673 253,-37.6674 249.5,-47.6674 256.5,-47.6673"/>
</g>
<!-- 21324 -->
<g id="node9" class="node"><title>21324</title>
<a xlink:href="21324.svg" xlink:title="gen_random_bytes">
<ellipse fill="none" stroke="black" cx="416" cy="-19" rx="103.945" ry="18.3848"/>
<text text-anchor="middle" x="416" y="-15.4" font-family="Times Roman,serif" font-size="14.00">gen_random_bytes</text>
</a>
</g>
<!-- 21407&#45;&gt;21324 -->
<g id="edge8" class="edge"><title>21407&#45;&gt;21324</title>
<path fill="none" stroke="black" d="M288.369,-76.9431C311.885,-66.267 343.042,-52.1222 368.684,-40.4808"/>
<polygon fill="black" stroke="black" points="370.199,-43.637 377.858,-36.3161 367.305,-37.2631 370.199,-43.637"/>
</g>
</g>
</svg>
