<?xml version="1.0" encoding="UTF-8" standalone="no"?>
<!DOCTYPE svg PUBLIC "-//W3C//DTD SVG 1.1//EN"
 "http://www.w3.org/Graphics/SVG/1.1/DTD/svg11.dtd">
<!-- Generated by graphviz version 2.26.3 (20100126.1600)
 -->
<!-- Title: graph1 Pages: 1 -->
<svg width="329pt" height="194pt"
 viewBox="0.00 0.00 329.00 194.00" xmlns="http://www.w3.org/2000/svg" xmlns:xlink="http://www.w3.org/1999/xlink">
<g id="graph1" class="graph" transform="scale(1 1) rotate(0) translate(4 190)">
<title>graph1</title>
<polygon fill="white" stroke="white" points="-4,5 -4,-190 326,-190 326,5 -4,5"/>
<!-- 21408 -->
<g id="node1" class="node"><title>21408</title>
<a xlink:href="21408.svg" xlink:title="authorise_payment_request">
<ellipse fill="none" stroke="black" stroke-width="2.5" cx="173" cy="-167" rx="147.992" ry="18.3848"/>
<text text-anchor="middle" x="173" y="-163.4" font-family="Times Roman,serif" font-size="14.00">authorise_payment_request</text>
</a>
</g>
<!-- 21411 -->
<g id="node3" class="node"><title>21411</title>
<ellipse fill="none" stroke="black" stroke-dasharray="5,2" cx="173" cy="-93" rx="68.7979" ry="18.3848"/>
<text text-anchor="middle" x="173" y="-89.4" font-family="Times Roman,serif" font-size="14.00">decrypt_cvc</text>
</g>
<!-- 21408&#45;&gt;21411 -->
<g id="edge2" class="edge"><title>21408&#45;&gt;21411</title>
<path fill="none" stroke="black" d="M173,-148.327C173,-140.264 173,-130.648 173,-121.711"/>
<polygon fill="black" stroke="black" points="176.5,-121.667 173,-111.667 169.5,-121.667 176.5,-121.667"/>
</g>
<!-- 21329 -->
<g id="node5" class="node"><title>21329</title>
<a xlink:href="21329.svg" xlink:title="pgp_sym_decrypt">
<ellipse fill="none" stroke="black" cx="96" cy="-19" rx="96.1665" ry="18.3848"/>
<text text-anchor="middle" x="96" y="-15.4" font-family="Times Roman,serif" font-size="14.00">pgp_sym_decrypt</text>
</a>
</g>
<!-- 21411&#45;&gt;21329 -->
<g id="edge4" class="edge"><title>21411&#45;&gt;21329</title>
<path fill="none" stroke="black" d="M154.36,-75.0867C144.762,-65.8621 132.895,-54.4579 122.374,-44.3468"/>
<polygon fill="black" stroke="black" points="124.638,-41.6681 115.003,-37.2625 119.788,-46.7153 124.638,-41.6681"/>
</g>
<!-- 21313 -->
<g id="node7" class="node"><title>21313</title>
<a xlink:href="21313.svg" xlink:title="digest">
<ellipse fill="none" stroke="black" cx="251" cy="-19" rx="41.0122" ry="18.3848"/>
<text text-anchor="middle" x="251" y="-15.4" font-family="Times Roman,serif" font-size="14.00">digest</text>
</a>
</g>
<!-- 21411&#45;&gt;21313 -->
<g id="edge6" class="edge"><title>21411&#45;&gt;21313</title>
<path fill="none" stroke="black" d="M191.882,-75.0867C202.139,-65.3555 214.953,-53.1987 226.026,-42.6931"/>
<polygon fill="black" stroke="black" points="228.516,-45.1557 233.362,-35.734 223.698,-40.0775 228.516,-45.1557"/>
</g>
</g>
</svg>
