<?xml version="1.0" encoding="UTF-8" standalone="no"?>
<!DOCTYPE svg PUBLIC "-//W3C//DTD SVG 1.1//EN"
 "http://www.w3.org/Graphics/SVG/1.1/DTD/svg11.dtd">
<!-- Generated by graphviz version 2.26.3 (20100126.1600)
 -->
<!-- Title: graph1 Pages: 1 -->
<svg width="488pt" height="194pt"
 viewBox="0.00 0.00 488.00 194.00" xmlns="http://www.w3.org/2000/svg" xmlns:xlink="http://www.w3.org/1999/xlink">
<g id="graph1" class="graph" transform="scale(1 1) rotate(0) translate(4 190)">
<title>graph1</title>
<polygon fill="white" stroke="white" points="-4,5 -4,-190 485,-190 485,5 -4,5"/>
<!-- 21408 -->
<g id="node1" class="node"><title>21408</title>
<a xlink:href="21408.svg" xlink:title="authorise_payment_request">
<ellipse fill="none" stroke="black" stroke-width="2.5" cx="295" cy="-167" rx="147.992" ry="18.3848"/>
<text text-anchor="middle" x="295" y="-163.4" font-family="Times Roman,serif" font-size="14.00">authorise_payment_request</text>
</a>
</g>
<!-- 21410 -->
<g id="node3" class="node"><title>21410</title>
<ellipse fill="none" stroke="black" stroke-dasharray="5,2" cx="295" cy="-93" rx="74.2462" ry="18.3848"/>
<text text-anchor="middle" x="295" y="-89.4" font-family="Times Roman,serif" font-size="14.00">decrypt_card</text>
</g>
<!-- 21408&#45;&gt;21410 -->
<g id="edge2" class="edge"><title>21408&#45;&gt;21410</title>
<path fill="none" stroke="black" d="M295,-148.327C295,-140.264 295,-130.648 295,-121.711"/>
<polygon fill="black" stroke="black" points="298.5,-121.667 295,-111.667 291.5,-121.667 298.5,-121.667"/>
</g>
<!-- 21329 -->
<g id="node5" class="node"><title>21329</title>
<a xlink:href="21329.svg" xlink:title="pgp_sym_decrypt">
<ellipse fill="none" stroke="black" cx="96" cy="-19" rx="96.1665" ry="18.3848"/>
<text text-anchor="middle" x="96" y="-15.4" font-family="Times Roman,serif" font-size="14.00">pgp_sym_decrypt</text>
</a>
</g>
<!-- 21410&#45;&gt;21329 -->
<g id="edge4" class="edge"><title>21410&#45;&gt;21329</title>
<path fill="none" stroke="black" d="M253.283,-77.4872C223.201,-66.3009 182.335,-51.1045 149.799,-39.0056"/>
<polygon fill="black" stroke="black" points="151.018,-35.7249 140.425,-35.52 148.578,-42.286 151.018,-35.7249"/>
</g>
<!-- 21358 -->
<g id="node7" class="node"><title>21358</title>
<a xlink:href="21358.svg" xlink:title="card_from_json">
<ellipse fill="none" stroke="black" cx="295" cy="-19" rx="84.8528" ry="18.3848"/>
<text text-anchor="middle" x="295" y="-15.4" font-family="Times Roman,serif" font-size="14.00">card_from_json</text>
</a>
</g>
<!-- 21410&#45;&gt;21358 -->
<g id="edge6" class="edge"><title>21410&#45;&gt;21358</title>
<path fill="none" stroke="black" d="M295,-74.3267C295,-66.2639 295,-56.6477 295,-47.7115"/>
<polygon fill="black" stroke="black" points="298.5,-47.6673 295,-37.6674 291.5,-47.6674 298.5,-47.6673"/>
</g>
<!-- 21313 -->
<g id="node9" class="node"><title>21313</title>
<a xlink:href="21313.svg" xlink:title="digest">
<ellipse fill="none" stroke="black" cx="439" cy="-19" rx="41.0122" ry="18.3848"/>
<text text-anchor="middle" x="439" y="-15.4" font-family="Times Roman,serif" font-size="14.00">digest</text>
</a>
</g>
<!-- 21410&#45;&gt;21313 -->
<g id="edge8" class="edge"><title>21410&#45;&gt;21313</title>
<path fill="none" stroke="black" d="M327.676,-76.2083C349.993,-64.7397 379.581,-49.5345 402.644,-37.6828"/>
<polygon fill="black" stroke="black" points="404.475,-40.6773 411.769,-32.9936 401.275,-34.4513 404.475,-40.6773"/>
</g>
</g>
</svg>
