<?xml version="1.0" encoding="UTF-8" standalone="no"?>
<!DOCTYPE svg PUBLIC "-//W3C//DTD SVG 1.1//EN"
 "http://www.w3.org/Graphics/SVG/1.1/DTD/svg11.dtd">
<!-- Generated by graphviz version 2.26.3 (20100126.1600)
 -->
<!-- Title: graph1 Pages: 1 -->
<svg width="968pt" height="120pt"
 viewBox="0.00 0.00 968.00 120.00" xmlns="http://www.w3.org/2000/svg" xmlns:xlink="http://www.w3.org/1999/xlink">
<g id="graph1" class="graph" transform="scale(1 1) rotate(0) translate(4 116)">
<title>graph1</title>
<polygon fill="white" stroke="white" points="-4,5 -4,-116 965,-116 965,5 -4,5"/>
<!-- t21409e21359 -->
<g id="node1" class="node"><title>t21409e21359</title>
<a xlink:href="perfunction/21359.svg" xlink:title="http_post_xml">
<ellipse fill="none" stroke="black" cx="81" cy="-19" rx="80.8184" ry="18.3848"/>
<text text-anchor="middle" x="81" y="-15.4" font-family="Times Roman,serif" font-size="14.00">http_post_xml</text>
</a>
</g>
<!-- t21409e21409 -->
<g id="node2" class="node"><title>t21409e21409</title>
<a xlink:href="perfunction/21409.svg" xlink:title="authorise_payment_request_3d">
<ellipse fill="none" stroke="black" cx="370" cy="-93" rx="166.17" ry="18.3848"/>
<text text-anchor="middle" x="370" y="-89.4" font-family="Times Roman,serif" font-size="14.00">authorise_payment_request_3d</text>
</a>
</g>
<!-- t21409e21409&#45;&gt;t21409e21359 -->
<g id="edge2" class="edge"><title>t21409e21409&#45;&gt;t21409e21359</title>
<path fill="none" stroke="#e10000" stroke-width="5" d="M303.698,-76.0229C256.09,-63.8328 192.278,-47.4932 145.165,-35.4298"/>
<polygon fill="#e10000" stroke="#e10000" points="146.15,-31.1659 135.377,-32.9236 143.979,-39.6425 146.15,-31.1659"/>
</g>
<!-- t21409e21413 -->
<g id="node3" class="node"><title>t21409e21413</title>
<a xlink:href="perfunction/21413.svg" xlink:title="format_adyen_authorise_request_3d">
<ellipse fill="none" stroke="black" cx="370" cy="-19" rx="190.212" ry="18.3848"/>
<text text-anchor="middle" x="370" y="-15.4" font-family="Times Roman,serif" font-size="14.00">format_adyen_authorise_request_3d</text>
</a>
</g>
<!-- t21409e21409&#45;&gt;t21409e21413 -->
<g id="edge4" class="edge"><title>t21409e21409&#45;&gt;t21409e21413</title>
<path fill="none" stroke="#d7d7d7" d="M370,-74.3267C370,-66.2639 370,-56.6477 370,-47.7115"/>
<polygon fill="#d7d7d7" stroke="#d7d7d7" points="373.5,-47.6673 370,-37.6674 366.5,-47.6674 373.5,-47.6673"/>
</g>
<!-- t21409e21415 -->
<g id="node4" class="node"><title>t21409e21415</title>
<a xlink:href="perfunction/21415.svg" xlink:title="parse_adyen_authorise_response_3d">
<ellipse fill="none" stroke="black" cx="769" cy="-19" rx="190.919" ry="18.3848"/>
<text text-anchor="middle" x="769" y="-15.4" font-family="Times Roman,serif" font-size="14.00">parse_adyen_authorise_response_3d</text>
</a>
</g>
<!-- t21409e21409&#45;&gt;t21409e21415 -->
<g id="edge6" class="edge"><title>t21409e21409&#45;&gt;t21409e21415</title>
<path fill="none" stroke="#d7d7d7" d="M455.596,-77.1251C518.649,-65.431 604.532,-49.5028 670.45,-37.2774"/>
<polygon fill="#d7d7d7" stroke="#d7d7d7" points="671.244,-40.6899 680.438,-35.425 669.968,-33.8073 671.244,-40.6899"/>
</g>
</g>
</svg>
