<?xml version="1.0" encoding="UTF-8" standalone="no"?>
<!DOCTYPE svg PUBLIC "-//W3C//DTD SVG 1.1//EN"
 "http://www.w3.org/Graphics/SVG/1.1/DTD/svg11.dtd">
<!-- Generated by graphviz version 2.26.3 (20100126.1600)
 -->
<!-- Title: graph1 Pages: 1 -->
<svg width="1247pt" height="194pt"
 viewBox="0.00 0.00 1247.00 194.00" xmlns="http://www.w3.org/2000/svg" xmlns:xlink="http://www.w3.org/1999/xlink">
<g id="graph1" class="graph" transform="scale(1 1) rotate(0) translate(4 190)">
<title>graph1</title>
<polygon fill="white" stroke="white" points="-4,5 -4,-190 1244,-190 1244,5 -4,5"/>
<!-- t21408e21313 -->
<g id="node1" class="node"><title>t21408e21313</title>
<a xlink:href="perfunction/21313.svg" xlink:title="digest">
<ellipse fill="none" stroke="black" cx="251" cy="-19" rx="41.0122" ry="18.3848"/>
<text text-anchor="middle" x="251" y="-15.4" font-family="Times Roman,serif" font-size="14.00">digest</text>
</a>
</g>
<!-- t21408e21329 -->
<g id="node2" class="node"><title>t21408e21329</title>
<a xlink:href="perfunction/21329.svg" xlink:title="pgp_sym_decrypt">
<ellipse fill="none" stroke="black" cx="96" cy="-19" rx="96.1665" ry="18.3848"/>
<text text-anchor="middle" x="96" y="-15.4" font-family="Times Roman,serif" font-size="14.00">pgp_sym_decrypt</text>
</a>
</g>
<!-- t21408e21358 -->
<g id="node3" class="node"><title>t21408e21358</title>
<a xlink:href="perfunction/21358.svg" xlink:title="card_from_json">
<ellipse fill="none" stroke="black" cx="395" cy="-19" rx="84.8528" ry="18.3848"/>
<text text-anchor="middle" x="395" y="-15.4" font-family="Times Roman,serif" font-size="14.00">card_from_json</text>
</a>
</g>
<!-- t21408e21359 -->
<g id="node4" class="node"><title>t21408e21359</title>
<a xlink:href="perfunction/21359.svg" xlink:title="http_post_xml">
<ellipse fill="none" stroke="black" cx="430" cy="-93" rx="80.8184" ry="18.3848"/>
<text text-anchor="middle" x="430" y="-89.4" font-family="Times Roman,serif" font-size="14.00">http_post_xml</text>
</a>
</g>
<!-- t21408e21408 -->
<g id="node5" class="node"><title>t21408e21408</title>
<a xlink:href="perfunction/21408.svg" xlink:title="authorise_payment_request">
<ellipse fill="none" stroke="black" cx="430" cy="-167" rx="147.992" ry="18.3848"/>
<text text-anchor="middle" x="430" y="-163.4" font-family="Times Roman,serif" font-size="14.00">authorise_payment_request</text>
</a>
</g>
<!-- t21408e21408&#45;&gt;t21408e21359 -->
<g id="edge2" class="edge"><title>t21408e21408&#45;&gt;t21408e21359</title>
<path fill="none" stroke="#e10000" stroke-width="5" d="M430,-148.327C430,-140.264 430,-130.648 430,-121.711"/>
<polygon fill="#e10000" stroke="#e10000" points="434.375,-121.667 430,-111.667 425.625,-121.667 434.375,-121.667"/>
</g>
<!-- t21408e21410 -->
<g id="node6" class="node"><title>t21408e21410</title>
<a xlink:href="perfunction/21410.svg" xlink:title="decrypt_card">
<ellipse fill="none" stroke="black" cx="257" cy="-93" rx="74.2462" ry="18.3848"/>
<text text-anchor="middle" x="257" y="-89.4" font-family="Times Roman,serif" font-size="14.00">decrypt_card</text>
</a>
</g>
<!-- t21408e21408&#45;&gt;t21408e21410 -->
<g id="edge4" class="edge"><title>t21408e21408&#45;&gt;t21408e21410</title>
<path fill="none" stroke="#d5d5d5" d="M388.122,-149.087C362.65,-138.191 330.069,-124.255 303.757,-113"/>
<polygon fill="#d5d5d5" stroke="#d5d5d5" points="304.943,-109.701 294.372,-108.986 302.19,-116.137 304.943,-109.701"/>
</g>
<!-- t21408e21411 -->
<g id="node7" class="node"><title>t21408e21411</title>
<a xlink:href="perfunction/21411.svg" xlink:title="decrypt_cvc">
<ellipse fill="none" stroke="black" cx="96" cy="-93" rx="68.7979" ry="18.3848"/>
<text text-anchor="middle" x="96" y="-89.4" font-family="Times Roman,serif" font-size="14.00">decrypt_cvc</text>
</a>
</g>
<!-- t21408e21408&#45;&gt;t21408e21411 -->
<g id="edge6" class="edge"><title>t21408e21408&#45;&gt;t21408e21411</title>
<path fill="none" stroke="#d7d7d7" d="M353.426,-151.119C302.493,-140.416 234.151,-125.785 174,-112 168.343,-110.704 162.463,-109.326 156.581,-107.928"/>
<polygon fill="#d7d7d7" stroke="#d7d7d7" points="157.261,-104.493 146.721,-105.568 155.631,-111.3 157.261,-104.493"/>
</g>
<!-- t21408e21412 -->
<g id="node8" class="node"><title>t21408e21412</title>
<a xlink:href="perfunction/21412.svg" xlink:title="format_adyen_authorise_request">
<ellipse fill="none" stroke="black" cx="702" cy="-93" rx="173.241" ry="18.3848"/>
<text text-anchor="middle" x="702" y="-89.4" font-family="Times Roman,serif" font-size="14.00">format_adyen_authorise_request</text>
</a>
</g>
<!-- t21408e21408&#45;&gt;t21408e21412 -->
<g id="edge8" class="edge"><title>t21408e21408&#45;&gt;t21408e21412</title>
<path fill="none" stroke="#d7d7d7" d="M492.061,-150.116C532.645,-139.074 585.85,-124.6 628.543,-112.985"/>
<polygon fill="#d7d7d7" stroke="#d7d7d7" points="629.587,-116.328 638.317,-110.325 627.749,-109.573 629.587,-116.328"/>
</g>
<!-- t21408e21414 -->
<g id="node9" class="node"><title>t21408e21414</title>
<a xlink:href="perfunction/21414.svg" xlink:title="parse_adyen_authorise_response">
<ellipse fill="none" stroke="black" cx="1066" cy="-93" rx="173.241" ry="18.3848"/>
<text text-anchor="middle" x="1066" y="-89.4" font-family="Times Roman,serif" font-size="14.00">parse_adyen_authorise_response</text>
</a>
</g>
<!-- t21408e21408&#45;&gt;t21408e21414 -->
<g id="edge10" class="edge"><title>t21408e21408&#45;&gt;t21408e21414</title>
<path fill="none" stroke="#d7d7d7" d="M538.61,-154.363C649.442,-141.467 821.363,-121.464 938.566,-107.827"/>
<polygon fill="#d7d7d7" stroke="#d7d7d7" points="939.143,-111.284 948.671,-106.651 938.334,-104.331 939.143,-111.284"/>
</g>
<!-- t21408e21410&#45;&gt;t21408e21313 -->
<g id="edge12" class="edge"><title>t21408e21410&#45;&gt;t21408e21313</title>
<path fill="none" stroke="#d7d7d7" d="M255.486,-74.3267C254.832,-66.2639 254.053,-56.6477 253.328,-47.7115"/>
<polygon fill="#d7d7d7" stroke="#d7d7d7" points="256.81,-47.3518 252.514,-37.6674 249.833,-47.9175 256.81,-47.3518"/>
</g>
<!-- t21408e21410&#45;&gt;t21408e21329 -->
<g id="edge14" class="edge"><title>t21408e21410&#45;&gt;t21408e21329</title>
<path fill="none" stroke="#d7d7d7" d="M221.269,-76.577C198.104,-65.9297 167.686,-51.9489 142.626,-40.4305"/>
<polygon fill="#d7d7d7" stroke="#d7d7d7" points="143.858,-37.1447 133.31,-36.1485 140.934,-43.505 143.858,-37.1447"/>
</g>
<!-- t21408e21410&#45;&gt;t21408e21358 -->
<g id="edge16" class="edge"><title>t21408e21410&#45;&gt;t21408e21358</title>
<path fill="none" stroke="#d4d4d4" d="M288.314,-76.2083C307.71,-65.8074 332.838,-52.3334 353.834,-41.0745"/>
<polygon fill="#d4d4d4" stroke="#d4d4d4" points="355.693,-44.0492 362.852,-36.2388 352.385,-37.8801 355.693,-44.0492"/>
</g>
<!-- t21408e21411&#45;&gt;t21408e21313 -->
<g id="edge18" class="edge"><title>t21408e21411&#45;&gt;t21408e21313</title>
<path fill="none" stroke="#d7d7d7" d="M130.015,-76.7604C154.67,-64.99 188.004,-49.0753 213.44,-36.9317"/>
<polygon fill="#d7d7d7" stroke="#d7d7d7" points="215.251,-39.9456 222.768,-32.4786 212.235,-33.6286 215.251,-39.9456"/>
</g>
<!-- t21408e21411&#45;&gt;t21408e21329 -->
<g id="edge20" class="edge"><title>t21408e21411&#45;&gt;t21408e21329</title>
<path fill="none" stroke="#d7d7d7" d="M96,-74.3267C96,-66.2639 96,-56.6477 96,-47.7115"/>
<polygon fill="#d7d7d7" stroke="#d7d7d7" points="99.5001,-47.6673 96,-37.6674 92.5001,-47.6674 99.5001,-47.6673"/>
</g>
</g>
</svg>
