<?xml version="1.0" encoding="UTF-8" standalone="no"?>
<!DOCTYPE svg PUBLIC "-//W3C//DTD SVG 1.1//EN"
 "http://www.w3.org/Graphics/SVG/1.1/DTD/svg11.dtd">
<!-- Generated by graphviz version 2.26.3 (20100126.1600)
 -->
<!-- Title: graph1 Pages: 1 -->
<svg width="877pt" height="194pt"
 viewBox="0.00 0.00 877.00 194.00" xmlns="http://www.w3.org/2000/svg" xmlns:xlink="http://www.w3.org/1999/xlink">
<g id="graph1" class="graph" transform="scale(1 1) rotate(0) translate(4 190)">
<title>graph1</title>
<polygon fill="white" stroke="white" points="-4,5 -4,-190 874,-190 874,5 -4,5"/>
<!-- t21406e21313 -->
<g id="node1" class="node"><title>t21406e21313</title>
<a xlink:href="perfunction/21313.svg" xlink:title="digest">
<ellipse fill="none" stroke="black" cx="41" cy="-19" rx="41.0122" ry="18.3848"/>
<text text-anchor="middle" x="41" y="-15.4" font-family="Times Roman,serif" font-size="14.00">digest</text>
</a>
</g>
<!-- t21406e21317 -->
<g id="node2" class="node"><title>t21406e21317</title>
<a xlink:href="perfunction/21317.svg" xlink:title="crypt">
<ellipse fill="none" stroke="black" cx="254" cy="-93" rx="36.7696" ry="18.3848"/>
<text text-anchor="middle" x="254" y="-89.4" font-family="Times Roman,serif" font-size="14.00">crypt</text>
</a>
</g>
<!-- t21406e21319 -->
<g id="node3" class="node"><title>t21406e21319</title>
<a xlink:href="perfunction/21319.svg" xlink:title="gen_salt">
<ellipse fill="none" stroke="black" cx="361" cy="-93" rx="51.8276" ry="18.3848"/>
<text text-anchor="middle" x="361" y="-89.4" font-family="Times Roman,serif" font-size="14.00">gen_salt</text>
</a>
</g>
<!-- t21406e21324 -->
<g id="node4" class="node"><title>t21406e21324</title>
<a xlink:href="perfunction/21324.svg" xlink:title="gen_random_bytes">
<ellipse fill="none" stroke="black" cx="220" cy="-19" rx="103.945" ry="18.3848"/>
<text text-anchor="middle" x="220" y="-15.4" font-family="Times Roman,serif" font-size="14.00">gen_random_bytes</text>
</a>
</g>
<!-- t21406e21327 -->
<g id="node5" class="node"><title>t21406e21327</title>
<a xlink:href="perfunction/21327.svg" xlink:title="pgp_sym_encrypt">
<ellipse fill="none" stroke="black" cx="471" cy="-19" rx="96.8736" ry="18.3848"/>
<text text-anchor="middle" x="471" y="-15.4" font-family="Times Roman,serif" font-size="14.00">pgp_sym_encrypt</text>
</a>
</g>
<!-- t21406e21355 -->
<g id="node6" class="node"><title>t21406e21355</title>
<a xlink:href="perfunction/21355.svg" xlink:title="uuid_generate_v4">
<ellipse fill="none" stroke="black" cx="606" cy="-93" rx="99.201" ry="18.3848"/>
<text text-anchor="middle" x="606" y="-89.4" font-family="Times Roman,serif" font-size="14.00">uuid_generate_v4</text>
</a>
</g>
<!-- t21406e21357 -->
<g id="node7" class="node"><title>t21406e21357</title>
<a xlink:href="perfunction/21357.svg" xlink:title="card_to_json">
<ellipse fill="none" stroke="black" cx="796" cy="-93" rx="72.832" ry="18.3848"/>
<text text-anchor="middle" x="796" y="-89.4" font-family="Times Roman,serif" font-size="14.00">card_to_json</text>
</a>
</g>
<!-- t21406e21406 -->
<g id="node8" class="node"><title>t21406e21406</title>
<a xlink:href="perfunction/21406.svg" xlink:title="encrypt_card">
<ellipse fill="none" stroke="black" cx="401" cy="-167" rx="74.9533" ry="18.3848"/>
<text text-anchor="middle" x="401" y="-163.4" font-family="Times Roman,serif" font-size="14.00">encrypt_card</text>
</a>
</g>
<!-- t21406e21406&#45;&gt;t21406e21313 -->
<g id="edge2" class="edge"><title>t21406e21406&#45;&gt;t21406e21313</title>
<path fill="none" stroke="#d5d5d5" d="M330.437,-160.434C234.077,-150.789 71.0313,-131.78 52,-112 35.8732,-95.2388 34.3356,-68.1673 36.1177,-47.5436"/>
<polygon fill="#d5d5d5" stroke="#d5d5d5" points="39.6146,-47.7725 37.2925,-37.4352 32.6614,-46.9643 39.6146,-47.7725"/>
</g>
<!-- t21406e21406&#45;&gt;t21406e21317 -->
<g id="edge4" class="edge"><title>t21406e21406&#45;&gt;t21406e21317</title>
<path fill="none" stroke="#e10000" stroke-width="5" d="M367.643,-150.208C344.311,-138.463 313.194,-122.798 289.42,-110.83"/>
<polygon fill="#e10000" stroke="#e10000" points="291.275,-106.866 280.376,-106.278 287.341,-114.682 291.275,-106.866"/>
</g>
<!-- t21406e21406&#45;&gt;t21406e21319 -->
<g id="edge6" class="edge"><title>t21406e21406&#45;&gt;t21406e21319</title>
<path fill="none" stroke="#d6d6d6" d="M390.906,-148.327C386.324,-139.849 380.813,-129.654 375.777,-120.338"/>
<polygon fill="#d6d6d6" stroke="#d6d6d6" points="378.786,-118.544 370.952,-111.411 372.628,-121.872 378.786,-118.544"/>
</g>
<!-- t21406e21406&#45;&gt;t21406e21324 -->
<g id="edge8" class="edge"><title>t21406e21406&#45;&gt;t21406e21324</title>
<path fill="none" stroke="#d7d7d7" d="M413.147,-148.694C424.9,-128.455 438.683,-95.8326 422,-74 407.887,-55.531 357.454,-41.7878 310.515,-32.6586"/>
<polygon fill="#d7d7d7" stroke="#d7d7d7" points="311.042,-29.1963 300.566,-30.7804 309.743,-36.0748 311.042,-29.1963"/>
</g>
<!-- t21406e21406&#45;&gt;t21406e21327 -->
<g id="edge10" class="edge"><title>t21406e21406&#45;&gt;t21406e21327</title>
<path fill="none" stroke="#cccccc" d="M424.055,-149.27C435.152,-139.487 447.619,-126.412 455,-112 465.16,-92.1605 469.04,-67.1407 470.445,-48.0507"/>
<polygon fill="#cccccc" stroke="#cccccc" points="473.952,-48.0304 471.006,-37.8534 466.962,-47.6463 473.952,-48.0304"/>
</g>
<!-- t21406e21406&#45;&gt;t21406e21355 -->
<g id="edge12" class="edge"><title>t21406e21406&#45;&gt;t21406e21355</title>
<path fill="none" stroke="#d6d6d6" d="M443.476,-151.667C474.538,-140.455 516.954,-125.144 550.665,-112.975"/>
<polygon fill="#d6d6d6" stroke="#d6d6d6" points="552.157,-116.157 560.375,-109.47 549.78,-109.573 552.157,-116.157"/>
</g>
<!-- t21406e21406&#45;&gt;t21406e21357 -->
<g id="edge14" class="edge"><title>t21406e21406&#45;&gt;t21406e21357</title>
<path fill="none" stroke="#383838" stroke-width="2.59156" d="M464.137,-156.929C527.486,-146.584 627.768,-129.553 714,-112 720.108,-110.757 726.458,-109.4 732.798,-108.003"/>
<polygon fill="#383838" stroke="#383838" points="733.724,-111.382 742.718,-105.783 732.195,-104.551 733.724,-111.382"/>
</g>
<!-- t21406e21407 -->
<g id="node9" class="node"><title>t21406e21407</title>
<a xlink:href="perfunction/21407.svg" xlink:title="encrypt_cvc">
<ellipse fill="none" stroke="black" cx="130" cy="-93" rx="68.7979" ry="18.3848"/>
<text text-anchor="middle" x="130" y="-89.4" font-family="Times Roman,serif" font-size="14.00">encrypt_cvc</text>
</a>
</g>
<!-- t21406e21406&#45;&gt;t21406e21407 -->
<g id="edge16" class="edge"><title>t21406e21406&#45;&gt;t21406e21407</title>
<path fill="none" stroke="#d1d1d1" d="M350.662,-153.255C304.694,-140.702 236.735,-122.145 188.397,-108.946"/>
<polygon fill="#d1d1d1" stroke="#d1d1d1" points="189.269,-105.556 178.7,-106.298 187.425,-112.309 189.269,-105.556"/>
</g>
<!-- t21406e21407&#45;&gt;t21406e21313 -->
<g id="edge18" class="edge"><title>t21406e21407&#45;&gt;t21406e21313</title>
<path fill="none" stroke="#d7d7d7" d="M108.456,-75.0867C96.5549,-65.1917 81.638,-52.7889 68.8597,-42.1642"/>
<polygon fill="#d7d7d7" stroke="#d7d7d7" points="70.7515,-39.1854 60.8245,-35.4833 66.2762,-44.568 70.7515,-39.1854"/>
</g>
<!-- t21406e21407&#45;&gt;t21406e21324 -->
<g id="edge20" class="edge"><title>t21406e21407&#45;&gt;t21406e21324</title>
<path fill="none" stroke="#d7d7d7" d="M151.786,-75.0867C163.223,-65.683 177.415,-54.0142 189.887,-43.7592"/>
<polygon fill="#d7d7d7" stroke="#d7d7d7" points="192.288,-46.317 197.789,-37.2625 187.842,-40.9101 192.288,-46.317"/>
</g>
<!-- t21406e21407&#45;&gt;t21406e21327 -->
<g id="edge22" class="edge"><title>t21406e21407&#45;&gt;t21406e21327</title>
<path fill="none" stroke="#c7c7c7" d="M180.712,-80.3918C189.786,-78.2086 199.164,-75.9995 208,-74 270.404,-59.8784 341.435,-45.1006 393.936,-34.4235"/>
<polygon fill="#c7c7c7" stroke="#c7c7c7" points="394.744,-37.8308 403.848,-32.4115 393.352,-30.9707 394.744,-37.8308"/>
</g>
</g>
</svg>
