<?xml version="1.0" encoding="UTF-8" standalone="no"?>
<!DOCTYPE svg PUBLIC "-//W3C//DTD SVG 1.1//EN"
 "http://www.w3.org/Graphics/SVG/1.1/DTD/svg11.dtd">
<!-- Generated by graphviz version 2.26.3 (20100126.1600)
 -->
<!-- Title: graph1 Pages: 1 -->
<svg width="946pt" height="120pt"
 viewBox="0.00 0.00 946.00 120.00" xmlns="http://www.w3.org/2000/svg" xmlns:xlink="http://www.w3.org/1999/xlink">
<g id="graph1" class="graph" transform="scale(1 1) rotate(0) translate(4 116)">
<title>graph1</title>
<polygon fill="white" stroke="white" points="-4,5 -4,-116 943,-116 943,5 -4,5"/>
<!-- t21305e2003 -->
<g id="node1" class="node"><title>t21305e2003</title>
<a xlink:href="perfunction/2003.svg" xlink:title="textanycat">
<ellipse fill="none" stroke="black" cx="65" cy="-19" rx="65.0538" ry="18.3848"/>
<text text-anchor="middle" x="65" y="-15.4" font-family="Times Roman,serif" font-size="14.00">textanycat</text>
</a>
</g>
<!-- t21305e21234 -->
<g id="node2" class="node"><title>t21305e21234</title>
<a xlink:href="perfunction/21234.svg" xlink:title="uuid_generate_v4">
<ellipse fill="none" stroke="black" cx="247" cy="-19" rx="99.201" ry="18.3848"/>
<text text-anchor="middle" x="247" y="-15.4" font-family="Times Roman,serif" font-size="14.00">uuid_generate_v4</text>
</a>
</g>
<!-- t21305e21236 -->
<g id="node3" class="node"><title>t21305e21236</title>
<a xlink:href="perfunction/21236.svg" xlink:title="authorise_payment_request_json_rpc">
<ellipse fill="none" stroke="black" cx="557" cy="-19" rx="193.247" ry="18.3848"/>
<text text-anchor="middle" x="557" y="-15.4" font-family="Times Roman,serif" font-size="14.00">authorise_payment_request_json_rpc</text>
</a>
</g>
<!-- t21305e21304 -->
<g id="node4" class="node"><title>t21305e21304</title>
<a xlink:href="perfunction/21304.svg" xlink:title="store_card_key">
<ellipse fill="none" stroke="black" cx="853" cy="-19" rx="84.8528" ry="18.3848"/>
<text text-anchor="middle" x="853" y="-15.4" font-family="Times Roman,serif" font-size="14.00">store_card_key</text>
</a>
</g>
<!-- t21305e21305 -->
<g id="node5" class="node"><title>t21305e21305</title>
<a xlink:href="perfunction/21305.svg" xlink:title="authorise">
<ellipse fill="none" stroke="black" cx="402" cy="-93" rx="57.9828" ry="18.3848"/>
<text text-anchor="middle" x="402" y="-89.4" font-family="Times Roman,serif" font-size="14.00">authorise</text>
</a>
</g>
<!-- t21305e21305&#45;&gt;t21305e2003 -->
<g id="edge2" class="edge"><title>t21305e21305&#45;&gt;t21305e2003</title>
<path fill="none" stroke="#d7d7d7" d="M352.411,-83.3243C299.429,-72.8244 213.055,-55.2411 139,-38 133.671,-36.7594 128.138,-35.4252 122.605,-34.0599"/>
<polygon fill="#d7d7d7" stroke="#d7d7d7" points="123.241,-30.6112 112.691,-31.5822 121.544,-37.4023 123.241,-30.6112"/>
</g>
<!-- t21305e21305&#45;&gt;t21305e21234 -->
<g id="edge4" class="edge"><title>t21305e21305&#45;&gt;t21305e21234</title>
<path fill="none" stroke="#d7d7d7" d="M369.507,-77.4872C347.152,-66.8144 317.151,-52.4914 292.433,-40.6908"/>
<polygon fill="#d7d7d7" stroke="#d7d7d7" points="293.778,-37.4544 283.246,-36.3045 290.762,-43.7714 293.778,-37.4544"/>
</g>
<!-- t21305e21305&#45;&gt;t21305e21236 -->
<g id="edge6" class="edge"><title>t21305e21305&#45;&gt;t21305e21236</title>
<path fill="none" stroke="#e10000" stroke-width="5" d="M434.493,-77.4872C456.297,-67.0775 485.375,-53.1952 509.729,-41.5679"/>
<polygon fill="#e10000" stroke="#e10000" points="511.668,-45.4905 518.807,-37.2339 507.898,-37.5942 511.668,-45.4905"/>
</g>
<!-- t21305e21305&#45;&gt;t21305e21304 -->
<g id="edge8" class="edge"><title>t21305e21305&#45;&gt;t21305e21304</title>
<path fill="none" stroke="#d7d7d7" d="M455.354,-85.5717C525.254,-75.6584 651.572,-57.1216 759,-38 766.351,-36.6915 774.012,-35.2583 781.648,-33.7844"/>
<polygon fill="#d7d7d7" stroke="#d7d7d7" points="782.501,-37.184 791.643,-31.8302 781.157,-30.314 782.501,-37.184"/>
</g>
</g>
</svg>
