<?xml version="1.0" encoding="UTF-8" standalone="no"?>
<!DOCTYPE svg PUBLIC "-//W3C//DTD SVG 1.1//EN"
 "http://www.w3.org/Graphics/SVG/1.1/DTD/svg11.dtd">
<!-- Generated by graphviz version 2.26.3 (20100126.1600)
 -->
<!-- Title: authoriserequests Pages: 1 -->
<svg width="350pt" height="248pt"
 viewBox="0.00 0.00 350.00 248.00" xmlns="http://www.w3.org/2000/svg" xmlns:xlink="http://www.w3.org/1999/xlink">
<g id="graph1" class="graph" transform="scale(1 1) rotate(0) translate(4 244)">
<title>authoriserequests</title>
<polygon fill="white" stroke="white" points="-4,5 -4,-244 347,-244 347,5 -4,5"/>
<!-- 21306 -->
<g id="node1" class="node"><title>21306</title>
<a xlink:href="tlf21306.svg" xlink:title="authorise_3d">
<ellipse fill="none" stroke="black" cx="76" cy="-222" rx="75.1594" ry="18.3848"/>
<text text-anchor="middle" x="76" y="-218.4" font-family="Times Roman,serif" font-size="14.00">authorise_3d</text>
</a>
</g>
<!-- 21269 -->
<g id="node3" class="node"><title>21269</title>
<polygon fill="none" stroke="black" points="188.5,-0 188.5,-208 341.5,-208 341.5,-0 188.5,-0"/>
<text text-anchor="middle" x="265" y="-191.4" font-family="Times Roman,serif" font-size="14.00">authoriserequests</text>
<polyline fill="none" stroke="black" points="188.5,-182 341.5,-182 "/>
<text text-anchor="middle" x="265" y="-165.4" font-family="Times Roman,serif" font-size="14.00">sequential scans: 0</text>
<polyline fill="none" stroke="black" points="188.5,-156 341.5,-156 "/>
<text text-anchor="middle" x="265" y="-139.4" font-family="Times Roman,serif" font-size="14.00">avg seq tuples: 0</text>
<polyline fill="none" stroke="black" points="188.5,-130 341.5,-130 "/>
<text text-anchor="middle" x="265" y="-113.4" font-family="Times Roman,serif" font-size="14.00">index scans: 2</text>
<polyline fill="none" stroke="black" points="188.5,-104 341.5,-104 "/>
<text text-anchor="middle" x="265" y="-87.4" font-family="Times Roman,serif" font-size="14.00">avg idx tuples: 1.00</text>
<polyline fill="none" stroke="black" points="188.5,-78 341.5,-78 "/>
<text text-anchor="middle" x="265" y="-61.4" font-family="Times Roman,serif" font-size="14.00">inserted rows: 1</text>
<polyline fill="none" stroke="black" points="188.5,-52 341.5,-52 "/>
<text text-anchor="middle" x="265" y="-35.4" font-family="Times Roman,serif" font-size="14.00">updated rows: 0</text>
<polyline fill="none" stroke="black" points="188.5,-26 341.5,-26 "/>
<text text-anchor="middle" x="265" y="-9.4" font-family="Times Roman,serif" font-size="14.00">deleted rows: 0</text>
</g>
<!-- 21306&#45;&gt;21269 -->
<g id="edge2" class="edge"><title>21306&#45;&gt;21269:name</title>
<path fill="none" stroke="black" d="M117.974,-206.921C135.836,-201.606 157.283,-196.622 177.941,-195.326"/>
<polygon fill="black" stroke="black" points="178.119,-198.822 188,-195 177.892,-191.825 178.119,-198.822"/>
</g>
<!-- 21305 -->
<g id="node4" class="node"><title>21305</title>
<a xlink:href="tlf21305.svg" xlink:title="authorise">
<ellipse fill="none" stroke="black" cx="76" cy="-168" rx="57.9828" ry="18.3848"/>
<text text-anchor="middle" x="76" y="-164.4" font-family="Times Roman,serif" font-size="14.00">authorise</text>
</a>
</g>
<!-- 21305&#45;&gt;21269 -->
<g id="edge4" class="edge"><title>21305&#45;&gt;21269:name</title>
<path fill="none" stroke="black" d="M113.561,-181.737C132.199,-187.521 155.464,-193.247 177.815,-194.666"/>
<polygon fill="black" stroke="black" points="177.891,-198.171 188,-195 178.12,-191.174 177.891,-198.171"/>
</g>
</g>
</svg>
