<?xml version="1.0" encoding="UTF-8" standalone="no"?>
<!DOCTYPE svg PUBLIC "-//W3C//DTD SVG 1.1//EN"
 "http://www.w3.org/Graphics/SVG/1.1/DTD/svg11.dtd">
<!-- Generated by graphviz version 2.26.3 (20100126.1600)
 -->
<!-- Title: authorise3drequests Pages: 1 -->
<svg width="354pt" height="221pt"
 viewBox="0.00 0.00 354.00 221.00" xmlns="http://www.w3.org/2000/svg" xmlns:xlink="http://www.w3.org/1999/xlink">
<g id="graph1" class="graph" transform="scale(1 1) rotate(0) translate(4 217)">
<title>authorise3drequests</title>
<polygon fill="white" stroke="white" points="-4,5 -4,-217 351,-217 351,5 -4,5"/>
<!-- 21306 -->
<g id="node1" class="node"><title>21306</title>
<a xlink:href="tlf21306.svg" xlink:title="authorise_3d">
<ellipse fill="none" stroke="black" cx="76" cy="-195" rx="75.1594" ry="18.3848"/>
<text text-anchor="middle" x="76" y="-191.4" font-family="Times Roman,serif" font-size="14.00">authorise_3d</text>
</a>
</g>
<!-- 21289 -->
<g id="node3" class="node"><title>21289</title>
<polygon fill="none" stroke="black" points="188,-0 188,-208 346,-208 346,-0 188,-0"/>
<text text-anchor="middle" x="267" y="-191.4" font-family="Times Roman,serif" font-size="14.00">authorise3drequests</text>
<polyline fill="none" stroke="black" points="188,-182 346,-182 "/>
<text text-anchor="middle" x="267" y="-165.4" font-family="Times Roman,serif" font-size="14.00">sequential scans: 0</text>
<polyline fill="none" stroke="black" points="188,-156 346,-156 "/>
<text text-anchor="middle" x="267" y="-139.4" font-family="Times Roman,serif" font-size="14.00">avg seq tuples: 0</text>
<polyline fill="none" stroke="black" points="188,-130 346,-130 "/>
<text text-anchor="middle" x="267" y="-113.4" font-family="Times Roman,serif" font-size="14.00">index scans: 0</text>
<polyline fill="none" stroke="black" points="188,-104 346,-104 "/>
<text text-anchor="middle" x="267" y="-87.4" font-family="Times Roman,serif" font-size="14.00">avg idx tuples: 0</text>
<polyline fill="none" stroke="black" points="188,-78 346,-78 "/>
<text text-anchor="middle" x="267" y="-61.4" font-family="Times Roman,serif" font-size="14.00">inserted rows: 1</text>
<polyline fill="none" stroke="black" points="188,-52 346,-52 "/>
<text text-anchor="middle" x="267" y="-35.4" font-family="Times Roman,serif" font-size="14.00">updated rows: 0</text>
<polyline fill="none" stroke="black" points="188,-26 346,-26 "/>
<text text-anchor="middle" x="267" y="-9.4" font-family="Times Roman,serif" font-size="14.00">deleted rows: 0</text>
</g>
<!-- 21306&#45;&gt;21289 -->
<g id="edge2" class="edge"><title>21306&#45;&gt;21289:name</title>
<path fill="none" stroke="black" d="M151.609,-195C160.355,-195 169.251,-195 177.931,-195"/>
<polygon fill="black" stroke="black" points="178,-198.5 188,-195 178,-191.5 178,-198.5"/>
</g>
</g>
</svg>
