<?xml version="1.0" encoding="UTF-8" standalone="no"?>
<!DOCTYPE svg PUBLIC "-//W3C//DTD SVG 1.1//EN"
 "http://www.w3.org/Graphics/SVG/1.1/DTD/svg11.dtd">
<!-- Generated by graphviz version 2.26.3 (20100126.1600)
 -->
<!-- Title: cards Pages: 1 -->
<svg width="314pt" height="221pt"
 viewBox="0.00 0.00 314.00 221.00" xmlns="http://www.w3.org/2000/svg" xmlns:xlink="http://www.w3.org/1999/xlink">
<g id="graph1" class="graph" transform="scale(1 1) rotate(0) translate(4 217)">
<title>cards</title>
<polygon fill="white" stroke="white" points="-4,5 -4,-217 311,-217 311,5 -4,5"/>
<!-- 21305 -->
<g id="node1" class="node"><title>21305</title>
<a xlink:href="tlf21305.svg" xlink:title="authorise">
<ellipse fill="none" stroke="black" cx="58" cy="-195" rx="57.9828" ry="18.3848"/>
<text text-anchor="middle" x="58" y="-191.4" font-family="Times Roman,serif" font-size="14.00">authorise</text>
</a>
</g>
<!-- 21254 -->
<g id="node3" class="node"><title>21254</title>
<polygon fill="none" stroke="black" points="152.5,-0 152.5,-208 305.5,-208 305.5,-0 152.5,-0"/>
<text text-anchor="middle" x="229" y="-191.4" font-family="Times Roman,serif" font-size="14.00">cards</text>
<polyline fill="none" stroke="black" points="152.5,-182 305.5,-182 "/>
<text text-anchor="middle" x="229" y="-165.4" font-family="Times Roman,serif" font-size="14.00">sequential scans: 0</text>
<polyline fill="none" stroke="black" points="152.5,-156 305.5,-156 "/>
<text text-anchor="middle" x="229" y="-139.4" font-family="Times Roman,serif" font-size="14.00">avg seq tuples: 0</text>
<polyline fill="none" stroke="black" points="152.5,-130 305.5,-130 "/>
<text text-anchor="middle" x="229" y="-113.4" font-family="Times Roman,serif" font-size="14.00">index scans: 1</text>
<polyline fill="none" stroke="black" points="152.5,-104 305.5,-104 "/>
<text text-anchor="middle" x="229" y="-87.4" font-family="Times Roman,serif" font-size="14.00">avg idx tuples: 1.00</text>
<polyline fill="none" stroke="black" points="152.5,-78 305.5,-78 "/>
<text text-anchor="middle" x="229" y="-61.4" font-family="Times Roman,serif" font-size="14.00">inserted rows: 1</text>
<polyline fill="none" stroke="black" points="152.5,-52 305.5,-52 "/>
<text text-anchor="middle" x="229" y="-35.4" font-family="Times Roman,serif" font-size="14.00">updated rows: 0</text>
<polyline fill="none" stroke="black" points="152.5,-26 305.5,-26 "/>
<text text-anchor="middle" x="229" y="-9.4" font-family="Times Roman,serif" font-size="14.00">deleted rows: 0</text>
</g>
<!-- 21305&#45;&gt;21254 -->
<g id="edge2" class="edge"><title>21305&#45;&gt;21254:name</title>
<path fill="none" stroke="black" d="M116.166,-195C124.596,-195 133.295,-195 141.783,-195"/>
<polygon fill="black" stroke="black" points="142,-198.5 152,-195 142,-191.5 142,-198.5"/>
</g>
</g>
</svg>
