<?xml version="1.0" encoding="UTF-8" standalone="no"?>
<!DOCTYPE svg PUBLIC "-//W3C//DTD SVG 1.1//EN"
 "http://www.w3.org/Graphics/SVG/1.1/DTD/svg11.dtd">
<!-- Generated by graphviz version 2.26.3 (20100126.1600)
 -->
<!-- Title: merchantaccounts Pages: 1 -->
<svg width="446pt" height="275pt"
 viewBox="0.00 0.00 446.00 275.00" xmlns="http://www.w3.org/2000/svg" xmlns:xlink="http://www.w3.org/1999/xlink">
<g id="graph1" class="graph" transform="scale(1 1) rotate(0) translate(4 271)">
<title>merchantaccounts</title>
<polygon fill="white" stroke="white" points="-4,5 -4,-271 443,-271 443,5 -4,5"/>
<!-- 21305 -->
<g id="node1" class="node"><title>21305</title>
<a xlink:href="tlf21305.svg" xlink:title="authorise">
<ellipse fill="none" stroke="black" cx="123" cy="-249" rx="57.9828" ry="18.3848"/>
<text text-anchor="middle" x="123" y="-245.4" font-family="Times Roman,serif" font-size="14.00">authorise</text>
</a>
</g>
<!-- 21242 -->
<g id="node3" class="node"><title>21242</title>
<polygon fill="none" stroke="black" points="282,-0 282,-208 438,-208 438,-0 282,-0"/>
<text text-anchor="middle" x="360" y="-191.4" font-family="Times Roman,serif" font-size="14.00">merchantaccounts</text>
<polyline fill="none" stroke="black" points="282,-182 438,-182 "/>
<text text-anchor="middle" x="360" y="-165.4" font-family="Times Roman,serif" font-size="14.00">sequential scans: 2</text>
<polyline fill="none" stroke="black" points="282,-156 438,-156 "/>
<text text-anchor="middle" x="360" y="-139.4" font-family="Times Roman,serif" font-size="14.00">avg seq tuples: 1.00</text>
<polyline fill="none" stroke="black" points="282,-130 438,-130 "/>
<text text-anchor="middle" x="360" y="-113.4" font-family="Times Roman,serif" font-size="14.00">index scans: 2</text>
<polyline fill="none" stroke="black" points="282,-104 438,-104 "/>
<text text-anchor="middle" x="360" y="-87.4" font-family="Times Roman,serif" font-size="14.00">avg idx tuples: 1.00</text>
<polyline fill="none" stroke="black" points="282,-78 438,-78 "/>
<text text-anchor="middle" x="360" y="-61.4" font-family="Times Roman,serif" font-size="14.00">inserted rows: 0</text>
<polyline fill="none" stroke="black" points="282,-52 438,-52 "/>
<text text-anchor="middle" x="360" y="-35.4" font-family="Times Roman,serif" font-size="14.00">updated rows: 0</text>
<polyline fill="none" stroke="black" points="282,-26 438,-26 "/>
<text text-anchor="middle" x="360" y="-9.4" font-family="Times Roman,serif" font-size="14.00">deleted rows: 0</text>
</g>
<!-- 21305&#45;&gt;21242 -->
<g id="edge2" class="edge"><title>21305&#45;&gt;21242:name</title>
<path fill="none" stroke="black" d="M176.969,-242.283C199.057,-238.24 224.436,-231.884 246,-222 260.488,-215.359 262.046,-202.157 272.202,-197.067"/>
<polygon fill="black" stroke="black" points="272.938,-200.489 282,-195 271.493,-193.64 272.938,-200.489"/>
</g>
<!-- 21303 -->
<g id="node4" class="node"><title>21303</title>
<a xlink:href="tlf21303.svg" xlink:title="get_merchant_account">
<ellipse fill="none" stroke="black" cx="123" cy="-195" rx="123.037" ry="18.3848"/>
<text text-anchor="middle" x="123" y="-191.4" font-family="Times Roman,serif" font-size="14.00">get_merchant_account</text>
</a>
</g>
<!-- 21303&#45;&gt;21242 -->
<g id="edge4" class="edge"><title>21303&#45;&gt;21242:name</title>
<path fill="none" stroke="black" d="M246.26,-195C254.846,-195 263.428,-195 271.838,-195"/>
<polygon fill="black" stroke="black" points="272,-198.5 282,-195 272,-191.5 272,-198.5"/>
</g>
<!-- 21306 -->
<g id="node6" class="node"><title>21306</title>
<a xlink:href="tlf21306.svg" xlink:title="authorise_3d">
<ellipse fill="none" stroke="black" cx="123" cy="-141" rx="75.1594" ry="18.3848"/>
<text text-anchor="middle" x="123" y="-137.4" font-family="Times Roman,serif" font-size="14.00">authorise_3d</text>
</a>
</g>
<!-- 21306&#45;&gt;21242 -->
<g id="edge6" class="edge"><title>21306&#45;&gt;21242:name</title>
<path fill="none" stroke="black" d="M188.519,-149.993C207.601,-154.03 228.113,-159.801 246,-168 260.488,-174.641 262.046,-187.843 272.202,-192.933"/>
<polygon fill="black" stroke="black" points="271.493,-196.36 282,-195 272.938,-189.511 271.493,-196.36"/>
</g>
</g>
</svg>
