<?xml version="1.0" encoding="UTF-8" standalone="no"?>
<!DOCTYPE svg PUBLIC "-//W3C//DTD SVG 1.1//EN"
 "http://www.w3.org/Graphics/SVG/1.1/DTD/svg11.dtd">
<!-- Generated by graphviz version 2.26.3 (20100126.1600)
 -->
<!-- Title: authorise_3d Pages: 1 -->
<svg width="524pt" height="44pt"
 viewBox="0.00 0.00 524.00 44.00" xmlns="http://www.w3.org/2000/svg" xmlns:xlink="http://www.w3.org/1999/xlink">
<g id="graph1" class="graph" transform="scale(1 1) rotate(0) translate(4 40)">
<title>authorise_3d</title>
<polygon fill="white" stroke="white" points="-4,5 -4,-40 521,-40 521,5 -4,5"/>
<!-- 21269 -->
<g id="node1" class="node"><title>21269</title>
<a xlink:href="r21269.svg" xlink:title="authoriserequests">
<polygon fill="none" stroke="black" stroke-dasharray="5,2" points="335,-36 195,-36 195,-1.77636e-14 335,-3.55271e-15 335,-36"/>
<text text-anchor="middle" x="265" y="-14.4" font-family="Times Roman,serif" font-size="14.00">authoriserequests</text>
</a>
</g>
<!-- 21242 -->
<g id="node3" class="node"><title>21242</title>
<a xlink:href="r21242.svg" xlink:title="merchantaccounts">
<polygon fill="none" stroke="black" stroke-dasharray="5,2" points="515,-36 373,-36 373,-1.77636e-14 515,-3.55271e-15 515,-36"/>
<text text-anchor="middle" x="444" y="-14.4" font-family="Times Roman,serif" font-size="14.00">merchantaccounts</text>
</a>
</g>
<!-- 21269&#45;&gt;21242 -->
<g id="edge2" class="edge"><title>21269&#45;&gt;21242</title>
<path fill="none" stroke="black" d="M335.746,-18C344.385,-18 353.268,-18 362.054,-18"/>
<polygon fill="black" stroke="black" points="362.302,-21.5001 372.302,-18 362.302,-14.5001 362.302,-21.5001"/>
</g>
<!-- 21289 -->
<g id="node4" class="node"><title>21289</title>
<a xlink:href="r21289.svg" xlink:title="authorise3drequests">
<polygon fill="none" stroke="black" points="158,-36 7.10543e-14,-36 0,-1.77636e-14 158,-3.55271e-15 158,-36"/>
<text text-anchor="middle" x="79" y="-14.4" font-family="Times Roman,serif" font-size="14.00">authorise3drequests</text>
</a>
</g>
<!-- 21289&#45;&gt;21269 -->
<g id="edge4" class="edge"><title>21289&#45;&gt;21269</title>
<path fill="none" stroke="black" d="M158.15,-18C166.821,-18 175.655,-18 184.343,-18"/>
<polygon fill="black" stroke="black" points="184.457,-21.5001 194.457,-18 184.457,-14.5001 184.457,-21.5001"/>
</g>
</g>
</svg>
