<?xml version="1.0" encoding="UTF-8" standalone="no"?>
<!DOCTYPE svg PUBLIC "-//W3C//DTD SVG 1.1//EN"
 "http://www.w3.org/Graphics/SVG/1.1/DTD/svg11.dtd">
<!-- Generated by graphviz version 2.26.3 (20100126.1600)
 -->
<!-- Title: authorise Pages: 1 -->
<svg width="330pt" height="98pt"
 viewBox="0.00 0.00 330.00 98.00" xmlns="http://www.w3.org/2000/svg" xmlns:xlink="http://www.w3.org/1999/xlink">
<g id="graph1" class="graph" transform="scale(1 1) rotate(0) translate(4 94)">
<title>authorise</title>
<polygon fill="white" stroke="white" points="-4,5 -4,-94 327,-94 327,5 -4,5"/>
<!-- 21269 -->
<g id="node1" class="node"><title>21269</title>
<a xlink:href="r21269.svg" xlink:title="authoriserequests">
<polygon fill="none" stroke="black" points="141,-63 1,-63 1,-27 141,-27 141,-63"/>
<text text-anchor="middle" x="71" y="-41.4" font-family="Times Roman,serif" font-size="14.00">authoriserequests</text>
</a>
</g>
<!-- 21254 -->
<g id="node3" class="node"><title>21254</title>
<a xlink:href="r21254.svg" xlink:title="cards">
<polygon fill="none" stroke="black" points="277,-90 223,-90 223,-54 277,-54 277,-90"/>
<text text-anchor="middle" x="250" y="-68.4" font-family="Times Roman,serif" font-size="14.00">cards</text>
</a>
</g>
<!-- 21269&#45;&gt;21254 -->
<g id="edge2" class="edge"><title>21269&#45;&gt;21254</title>
<path fill="none" stroke="black" d="M141.746,-55.6711C165.989,-59.3279 192.155,-63.2747 212.688,-66.3719"/>
<polygon fill="black" stroke="black" points="212.166,-69.8327 222.576,-67.8635 213.21,-62.911 212.166,-69.8327"/>
</g>
<!-- 21242 -->
<g id="node5" class="node"><title>21242</title>
<a xlink:href="r21242.svg" xlink:title="merchantaccounts">
<polygon fill="none" stroke="black" stroke-dasharray="5,2" points="321,-36 179,-36 179,-1.77636e-14 321,-3.55271e-15 321,-36"/>
<text text-anchor="middle" x="250" y="-14.4" font-family="Times Roman,serif" font-size="14.00">merchantaccounts</text>
</a>
</g>
<!-- 21269&#45;&gt;21242 -->
<g id="edge4" class="edge"><title>21269&#45;&gt;21242</title>
<path fill="none" stroke="black" d="M141.746,-34.3289C150.479,-33.0116 159.461,-31.6567 168.34,-30.3174"/>
<polygon fill="black" stroke="black" points="168.936,-33.7673 178.302,-28.8148 167.892,-26.8456 168.936,-33.7673"/>
</g>
</g>
</svg>
