<?xml version="1.0" encoding="UTF-8" standalone="no"?>
<!DOCTYPE svg PUBLIC "-//W3C//DTD SVG 1.1//EN"
 "http://www.w3.org/Graphics/SVG/1.1/DTD/svg11.dtd">
<!-- Generated by graphviz version 2.26.3 (20100126.1600)
 -->
<!-- Title: hashsalts Pages: 1 -->
<svg width="348pt" height="221pt"
 viewBox="0.00 0.00 348.00 221.00" xmlns="http://www.w3.org/2000/svg" xmlns:xlink="http://www.w3.org/1999/xlink">
<g id="graph1" class="graph" transform="scale(1 1) rotate(0) translate(4 217)">
<title>hashsalts</title>
<polygon fill="white" stroke="white" points="-4,5 -4,-217 345,-217 345,5 -4,5"/>
<!-- 21406 -->
<g id="node1" class="node"><title>21406</title>
<a xlink:href="tlf21406.svg" xlink:title="encrypt_card">
<ellipse fill="none" stroke="black" cx="75" cy="-195" rx="74.9533" ry="18.3848"/>
<text text-anchor="middle" x="75" y="-191.4" font-family="Times Roman,serif" font-size="14.00">encrypt_card</text>
</a>
</g>
<!-- 21360 -->
<g id="node3" class="node"><title>21360</title>
<polygon fill="none" stroke="black" points="186.5,-0 186.5,-208 339.5,-208 339.5,-0 186.5,-0"/>
<text text-anchor="middle" x="263" y="-191.4" font-family="Times Roman,serif" font-size="14.00">hashsalts</text>
<polyline fill="none" stroke="black" points="186.5,-182 339.5,-182 "/>
<text text-anchor="middle" x="263" y="-165.4" font-family="Times Roman,serif" font-size="14.00">sequential scans: 0</text>
<polyline fill="none" stroke="black" points="186.5,-156 339.5,-156 "/>
<text text-anchor="middle" x="263" y="-139.4" font-family="Times Roman,serif" font-size="14.00">avg seq tuples: 0</text>
<polyline fill="none" stroke="black" points="186.5,-130 339.5,-130 "/>
<text text-anchor="middle" x="263" y="-113.4" font-family="Times Roman,serif" font-size="14.00">index scans: 1</text>
<polyline fill="none" stroke="black" points="186.5,-104 339.5,-104 "/>
<text text-anchor="middle" x="263" y="-87.4" font-family="Times Roman,serif" font-size="14.00">avg idx tuples: 0.00</text>
<polyline fill="none" stroke="black" points="186.5,-78 339.5,-78 "/>
<text text-anchor="middle" x="263" y="-61.4" font-family="Times Roman,serif" font-size="14.00">inserted rows: 1</text>
<polyline fill="none" stroke="black" points="186.5,-52 339.5,-52 "/>
<text text-anchor="middle" x="263" y="-35.4" font-family="Times Roman,serif" font-size="14.00">updated rows: 0</text>
<polyline fill="none" stroke="black" points="186.5,-26 339.5,-26 "/>
<text text-anchor="middle" x="263" y="-9.4" font-family="Times Roman,serif" font-size="14.00">deleted rows: 0</text>
</g>
<!-- 21406&#45;&gt;21360 -->
<g id="edge2" class="edge"><title>21406&#45;&gt;21360:name</title>
<path fill="none" stroke="black" d="M150.233,-195C158.739,-195 167.384,-195 175.826,-195"/>
<polygon fill="black" stroke="black" points="176,-198.5 186,-195 176,-191.5 176,-198.5"/>
</g>
</g>
</svg>
