<?xml version="1.0" encoding="UTF-8" standalone="no"?>
<!DOCTYPE svg PUBLIC "-//W3C//DTD SVG 1.1//EN"
 "http://www.w3.org/Graphics/SVG/1.1/DTD/svg11.dtd">
<!-- Generated by graphviz version 2.26.3 (20100126.1600)
 -->
<!-- Title: cardnumberreferences Pages: 1 -->
<svg width="514pt" height="248pt"
 viewBox="0.00 0.00 514.00 248.00" xmlns="http://www.w3.org/2000/svg" xmlns:xlink="http://www.w3.org/1999/xlink">
<g id="graph1" class="graph" transform="scale(1 1) rotate(0) translate(4 244)">
<title>cardnumberreferences</title>
<polygon fill="white" stroke="white" points="-4,5 -4,-244 511,-244 511,5 -4,5"/>
<!-- 21406 -->
<g id="node1" class="node"><title>21406</title>
<a xlink:href="tlf21406.svg" xlink:title="encrypt_card">
<ellipse fill="none" stroke="black" cx="149" cy="-222" rx="74.9533" ry="18.3848"/>
<text text-anchor="middle" x="149" y="-218.4" font-family="Times Roman,serif" font-size="14.00">encrypt_card</text>
</a>
</g>
<!-- 21371 -->
<g id="node3" class="node"><title>21371</title>
<polygon fill="none" stroke="black" points="334.5,-0 334.5,-208 505.5,-208 505.5,-0 334.5,-0"/>
<text text-anchor="middle" x="420" y="-191.4" font-family="Times Roman,serif" font-size="14.00">cardnumberreferences</text>
<polyline fill="none" stroke="black" points="334.5,-182 505.5,-182 "/>
<text text-anchor="middle" x="420" y="-165.4" font-family="Times Roman,serif" font-size="14.00">sequential scans: 0</text>
<polyline fill="none" stroke="black" points="334.5,-156 505.5,-156 "/>
<text text-anchor="middle" x="420" y="-139.4" font-family="Times Roman,serif" font-size="14.00">avg seq tuples: 0</text>
<polyline fill="none" stroke="black" points="334.5,-130 505.5,-130 "/>
<text text-anchor="middle" x="420" y="-113.4" font-family="Times Roman,serif" font-size="14.00">index scans: 3</text>
<polyline fill="none" stroke="black" points="334.5,-104 505.5,-104 "/>
<text text-anchor="middle" x="420" y="-87.4" font-family="Times Roman,serif" font-size="14.00">avg idx tuples: 0.67</text>
<polyline fill="none" stroke="black" points="334.5,-78 505.5,-78 "/>
<text text-anchor="middle" x="420" y="-61.4" font-family="Times Roman,serif" font-size="14.00">inserted rows: 1</text>
<polyline fill="none" stroke="black" points="334.5,-52 505.5,-52 "/>
<text text-anchor="middle" x="420" y="-35.4" font-family="Times Roman,serif" font-size="14.00">updated rows: 0</text>
<polyline fill="none" stroke="black" points="334.5,-26 505.5,-26 "/>
<text text-anchor="middle" x="420" y="-9.4" font-family="Times Roman,serif" font-size="14.00">deleted rows: 0</text>
</g>
<!-- 21406&#45;&gt;21371 -->
<g id="edge2" class="edge"><title>21406&#45;&gt;21371:name</title>
<path fill="none" stroke="black" d="M204.146,-209.685C237.978,-203.107 282.589,-196.15 323.866,-195.128"/>
<polygon fill="black" stroke="black" points="324.045,-198.626 334,-195 323.957,-191.627 324.045,-198.626"/>
</g>
<!-- 21408 -->
<g id="node4" class="node"><title>21408</title>
<a xlink:href="tlf21408.svg" xlink:title="authorise_payment_request">
<ellipse fill="none" stroke="black" cx="149" cy="-168" rx="147.992" ry="18.3848"/>
<text text-anchor="middle" x="149" y="-164.4" font-family="Times Roman,serif" font-size="14.00">authorise_payment_request</text>
</a>
</g>
<!-- 21408&#45;&gt;21371 -->
<g id="edge4" class="edge"><title>21408&#45;&gt;21371:name</title>
<path fill="none" stroke="black" d="M222.461,-183.706C253.227,-189.112 289.734,-194.033 323.944,-194.874"/>
<polygon fill="black" stroke="black" points="323.957,-198.374 334,-195 324.045,-191.375 323.957,-198.374"/>
</g>
</g>
</svg>
