<?xml version="1.0" encoding="UTF-8" standalone="no"?>
<!DOCTYPE svg PUBLIC "-//W3C//DTD SVG 1.1//EN"
 "http://www.w3.org/Graphics/SVG/1.1/DTD/svg11.dtd">
<!-- Generated by graphviz version 2.26.3 (20100126.1600)
 -->
<!-- Title: authorise_payment_request Pages: 1 -->
<svg width="338pt" height="98pt"
 viewBox="0.00 0.00 338.00 98.00" xmlns="http://www.w3.org/2000/svg" xmlns:xlink="http://www.w3.org/1999/xlink">
<g id="graph1" class="graph" transform="scale(1 1) rotate(0) translate(4 94)">
<title>authorise_payment_request</title>
<polygon fill="white" stroke="white" points="-4,5 -4,-94 335,-94 335,5 -4,5"/>
<!-- 21397 -->
<g id="node1" class="node"><title>21397</title>
<a xlink:href="r21397.svg" xlink:title="encryptedcvcs">
<polygon fill="none" stroke="black" points="118,-36 4,-36 4,-1.77636e-14 118,-3.55271e-15 118,-36"/>
<text text-anchor="middle" x="61" y="-14.4" font-family="Times Roman,serif" font-size="14.00">encryptedcvcs</text>
</a>
</g>
<!-- 21371 -->
<g id="node2" class="node"><title>21371</title>
<a xlink:href="r21371.svg" xlink:title="cardnumberreferences">
<polygon fill="none" stroke="black" stroke-dasharray="5,2" points="329,-90 159,-90 159,-54 329,-54 329,-90"/>
<text text-anchor="middle" x="244" y="-68.4" font-family="Times Roman,serif" font-size="14.00">cardnumberreferences</text>
</a>
</g>
<!-- 21383 -->
<g id="node3" class="node"><title>21383</title>
<a xlink:href="r21383.svg" xlink:title="encryptedcards">
<polygon fill="none" stroke="black" stroke-dasharray="5,2" points="122,-90 5.68434e-14,-90 7.10543e-15,-54 122,-54 122,-90"/>
<text text-anchor="middle" x="61" y="-68.4" font-family="Times Roman,serif" font-size="14.00">encryptedcards</text>
</a>
</g>
<!-- 21383&#45;&gt;21371 -->
<g id="edge2" class="edge"><title>21383&#45;&gt;21371</title>
<path fill="none" stroke="black" d="M122.191,-72C130.646,-72 139.491,-72 148.387,-72"/>
<polygon fill="black" stroke="black" points="148.436,-75.5001 158.436,-72 148.436,-68.5001 148.436,-75.5001"/>
</g>
</g>
</svg>
